<svg xmlns="http://www.w3.org/2000/svg" viewBox="0 0 512 512"><title>Body_Analytics</title><g id="artwork"><g id="_25_Body_analytics" data-name="25_Body_analytics"><path d="M299.6,83.48H79.91a11,11,0,0,0-11,11V229.3H51.14a16.14,16.14,0,1,0,0,12H69v117H44.25a16.14,16.14,0,1,0,0,12H69V486.12a11,11,0,0,0,11,10.95H378.64a11,11,0,0,0,11-10.95V83.48ZM37.29,239.29a4.15,4.15,0,0,1-5.11-5.12A4.07,4.07,0,0,1,35,231.31a4.16,4.16,0,0,1,5.12,5.11A4.09,4.09,0,0,1,37.29,239.29Zm-6.89,129a4.15,4.15,0,0,1-5.11-5.11,4.08,4.08,0,0,1,2.86-2.87,4.16,4.16,0,0,1,5.12,5.11A4.11,4.11,0,0,1,30.4,368.29Z" style="fill:#ddd3d4"/><path d="M493.88,274.48a10.14,10.14,0,1,1-10.14-10.14A10.14,10.14,0,0,1,493.88,274.48Z" style="fill:#f2463e"/><path d="M76.31,208.28a10.14,10.14,0,1,1-10.14-10.14A10.13,10.13,0,0,1,76.31,208.28Z" style="fill:#f2463e"/><polygon points="334.36 52.04 424.36 52.04 424.36 465.63 103.71 465.63 103.71 52.04 193.7 52.04 334.36 52.04" style="fill:#c5b5b6"/><polyline points="334.98 80.54 397.15 80.54 397.15 391.94 351.85 437.13 131.81 437.13 131.81 80.54 193.98 80.54" style="fill:#fff"/><path d="M315,235.51a52.64,52.64,0,0,1-5.21-38.27,56.12,56.12,0,0,1,6.77-16.51l-.15,0c.9-1.05,22.62-26.83,11.8-50.83H202.12c-11,24.5,11.84,50.88,11.84,50.88s17.53,25.77,1.57,54.78c-13.74,25-33.62,45.64-15.51,138.3h55l11.41-60.19,11.91,60.19h52.14C348.64,281.15,328.76,260.49,315,235.51Z" style="fill:#f3b5af"/><path d="M317.7,178.52l.15,0a50.87,50.87,0,0,0-6.77,15.49c-.14.56-.29,1.13-.41,1.72-45.67-8.26-75.5-3.56-88.35-.39a49.53,49.53,0,0,0-7.1-16.82s-22.88-24.76-11.84-47.75H329.5C340.32,153.34,318.6,177.53,317.7,178.52Z" style="fill:#4966a2"/><path d="M310.48,195.89c-44.5-16.53-87.32-.21-87.75,0L216.55,180c2-.77,49.35-18.81,99.85,0Z" style="fill:#fff"/><rect x="196" y="41.09" width="140.66" height="55.88" style="fill:#f3b5af"/><path d="M196.05,284s54.34-5.28,68.1,29.78l-9.21,60h-10.7s18.22-83.6-49.84-76.81Z" style="fill:#e08476"/><path d="M337.53,284s-54.34-5.29-68.1,29.78l9.21,60h10.7s-18.22-83.6,49.84-76.82Z" style="fill:#e08476"/><path d="M200.32,261.71s73.92,8.45,131.15-.77c0,0,6.4,19,6.78,23.52,0,0-55.72-8.46-69.87,29.16H264.3s-15.08-36.05-69.6-30.44C194.7,283.18,197.13,266.56,200.32,261.71Z" style="fill:#fff"/><rect x="217.36" y="67.09" width="57.67" height="12" style="fill:#142546"/><rect x="287.69" y="67.09" width="25.5" height="12" style="fill:#142546"/><path d="M482.72,257.86a16.13,16.13,0,0,0-15.14,10.62h-36V161.29h22.22a16.14,16.14,0,1,0,0-12H431.6V46h-90V35.09H302.12A23.36,23.36,0,0,0,279,14.93H251.53a23.36,23.36,0,0,0-23.11,20.16H188.94V46H99V202.28H81.14a16.13,16.13,0,1,0,0,12H99v117H74.25a16.13,16.13,0,1,0,0,12H99V471.63H431.6V280.48H468a16.14,16.14,0,1,0,14.77-22.62ZM468.79,151.15a4.14,4.14,0,1,1-4.14,4.14A4.15,4.15,0,0,1,468.79,151.15ZM66.17,212.41a4.14,4.14,0,1,1,4.14-4.13A4.13,4.13,0,0,1,66.17,212.41Zm-6.88,129a4.14,4.14,0,1,1,4.13-4.13A4.13,4.13,0,0,1,59.29,341.41ZM419.6,268.48h-16V161.29h16Zm-28,12V385.94H346.43v45.19H138.92V343.28h36.14v-12H138.92v-117h58.34v-12H138.92V86.54h50V103H341.6V86.54h50v62.75H347.06v12h44.56V268.48H352.43v12Zm-8.49,117.46-24.7,24.7v-24.7ZM419.6,58v91.25h-16V74.54h-62V58ZM251.53,26.93H279a11.35,11.35,0,0,1,10.88,8.16H240.65A11.35,11.35,0,0,1,251.53,26.93ZM200.94,47.09H329.6V91H200.94ZM111,58h78v16.5h-62V202.28H111Zm0,156.24h16v117H111ZM419.6,459.63H111V343.28h16v99.85h228l48.7-48.7V280.48h16Zm63.12-181.49a4.14,4.14,0,1,1,4.14-4.14A4.15,4.15,0,0,1,482.72,278.14Z" style="fill:#142546"/><path d="M271.17,235.78a4.87,4.87,0,1,1-4.38-5.31A4.88,4.88,0,0,1,271.17,235.78Z" style="fill:#122546"/><path d="M325.41,239.75c-1.43-2.45-2.78-4.76-4.08-7.13a46.32,46.32,0,0,1-4.62-34,50,50,0,0,1,6-14.72l.44-.69c4.91-6.23,22.65-31.3,11.6-55.83l-10.95,4.93c7.31,16.21-3.45,34.23-8.51,41.35a162.84,162.84,0,0,0-17.36-4.41L295.63,181c4.48.87,8.94,2,13.33,3.24-.69,1.54-1.38,3.24-2,5.09-35-7.8-68.56-3-81.38-.56-.61-1.68-1.24-3.2-1.84-4.54a152.19,152.19,0,0,1,41.58-6.08,154.7,154.7,0,0,1,19,1.06l1.42-11.91a164,164,0,0,0-68.52,6.37c-5.05-7.09-15.86-25.15-8.54-41.39l-11-4.93c-11.9,26.42,9.61,53.48,12.49,56.92,1.44,2.28,14.48,24.07,1.14,48.31-1.31,2.37-2.66,4.68-4.09,7.13C193.73,262.89,178.4,289.12,195.19,375l11.77-2.3c-7.49-38.34-8.33-64-5.81-82.6,7.84-.69,26.34-1.13,41.45,7.7,8.09,4.73,12,10.28,14,14.44-.23,8-.75,16-1.55,23.94a329.61,329.61,0,0,1-5.82,36.39l11.73,2.56a338.08,338.08,0,0,0,5.79-35.63,340.3,340.3,0,0,0,5.8,35.63l11.72-2.56a329.38,329.38,0,0,1-5.81-36.4c-.83-8.16-1.36-16.46-1.58-24.67,2.14-4.07,6.19-9.25,13.89-13.68,14.91-8.58,33-8.31,40.77-7.69,2.51,18.62,1.67,44.25-5.82,82.57l11.77,2.3C354.25,289.12,338.93,262.89,325.41,239.75Zm-107.8,6.05c1.4-2.41,2.85-4.89,4.23-7.39a58.15,58.15,0,0,0,6.74-37.94C241,198.22,272.19,194,304,201a58.71,58.71,0,0,0,6.77,37.39c1.38,2.5,2.83,5,4.24,7.39,2.2,3.77,4.46,7.64,6.59,11.9-18.2,1.74-36.64,2.62-54.91,2.63h-.28c-18.45,0-37.06-.89-55.43-2.65C213.15,253.43,215.4,249.57,217.61,245.8Zm67.14,41.58c-9.74,5.61-15.19,12.38-18.21,17.93-3-5.55-8.28-12.3-17.89-17.91-16-9.36-34.81-10-45.18-9.51.77-3.09,1.65-6,2.6-8.65a596.79,596.79,0,0,0,60.38,3.09h.29a595.24,595.24,0,0,0,59.85-3.07c1,2.69,1.83,5.56,2.6,8.65C318.68,277.42,300.61,278.26,284.75,287.38Z" style="fill:#142546"/></g></g></svg>