<svg xmlns="http://www.w3.org/2000/svg" viewBox="0 0 512 512"><title>Exercise001</title><g id="artwork"><g id="_19_exercise-1" data-name="19_exercise-1"><path d="M475.86,152.36l-46.47,10.78-87.67,3.57s-27.24,5.62-11.62,27.91L362,240.06c.1,1.19,1.52,15.34,14.2,22.38,7.86,4.36,18.78,5.29,27.46-.49,7.62-5.06,13.19-15.06,11-22.75,0,0-.7-2.45-11.74-14.24h0l-38.93-33.29,69.69-8.47s19,7.4,31.85-10.34,14.58-18.66,14.58-18.66Z" style="fill:#dcd3d4"/><path d="M281.11,318.67l-51.43-72.45s-16.12-15.61-42.22-7.26L107.37,264l1.31,3.27-68,31L31.58,300a5.5,5.5,0,0,0,1.32,10.9l5.4-.3s12.76,6.25,30-4.2c19-11.54,31,12.55,53.59-12.35,7.67-.14,33.17-1.34,75.19-10.6,0,0,13.6,105.35,60.39,106.56,65.66,1.69,71.17-21.57,71.17-21.57S292.73,356.89,281.11,318.67Z" style="fill:#dcd3d4"/><path d="M122,238.31l12,30.07s26.7.62,77.67-10.6c0,0,24.79,130.49,71.6,130.49s60-45.51,60-45.51-35.91-11.57-47.53-49.8l-51.43-72.45s-16.11-15.61-42.21-7.25Z" style="fill:#4966a2"/><path d="M125.47,238.31s48.71,24.85,107.52,5.94l1.67,4.35S184.8,270,136.8,267.8Z" style="fill:#3d5890"/><path d="M212.69,262.45s33.11,198.11,122,100.6c0,0-72,32.61-105-111.34l-17.9,6.07Z" style="fill:#3d5890"/><path d="M325.06,275l-28.44,20.6s14.16,44.36,46.67,47.16l27.52-22.54Z" style="fill:#f3b5af"/><polygon points="106.17 243.98 122.02 238.31 134.06 269.68 116.35 269.68 106.17 243.98" style="fill:#fff"/><path d="M435.22,138s16.76-25.41,45.49-8.26a38.76,38.76,0,0,1,18.56,36.79c-1.2,13.42-5.22,32.48-16.43,55.31a144.56,144.56,0,0,0-7.95,19.45c-5.24,16.34-18.78,47.63-43.2,36.7,0,0,14.6-9,11.69-32.11s14.38-40.94,14.38-40.94,25.2-35.54.79-54.2-24.68-12.64-24.68-12.64" style="fill:#4966a2"/><path d="M466,159.5C454.8,142.38,435.22,138,435.22,138s-25.38,37.74-14.9,58.74a25.44,25.44,0,0,0,4.39,6.33l-10.66,14.5,27.4,22.3s5.88-22.59,13.14-31.88c.77-.26,1.21-.44,1.21-.44S482.25,184.26,466,159.5Z" style="fill:#e08476"/><path d="M106.17,244S22.29,280.33,11.8,285.45c0,0,6.55,13.88,46,0,0,0,17,5.45,34,3.78s22.31-24.87,22.31-24.87Z" style="fill:#f3b5af"/><path d="M496.3,150.73,449.83,161.5l-87.66,3.58s-27.25,5.61-11.63,27.9l31.85,45.45c.1,1.18,1.53,15.34,14.2,22.37,7.86,4.36,18.78,5.29,27.46-.49.32-.21.63-.43.94-.65,11.47-8.48,11.43-25.73.34-34.7l-2-1.64h0L384.38,190l69.69-8.48s19,7.4,31.85-10.34,14.58-18.66,14.58-18.66Z" style="fill:#f3b5af"/><path d="M376.09,229.44s-35.43,2-51,45.56l45.75,45.22s78.43-37.27,72.57-74.35a23.41,23.41,0,0,0-1.44-4.92,28.35,28.35,0,0,0-16.2-15.64c6.57,12.26,4.85,25-1.44,31.5-3.53,3.67-8.46,4.67-11.21,5.23-11.15,2.28-20.26-2.49-23.29-4.26,0,0-8.32-9-7.41-19.35Z" style="fill:#ffeef0"/><path d="M380.3,313.9l-8.1,7L326.61,274c8.12-22.68,21.6-34.09,32.66-39.82a51.91,51.91,0,0,0-10.77,31.58C348.5,287.13,367.74,301.13,380.3,313.9Z" style="fill:#dcd3d4"/><rect x="462.84" y="382.77" width="36.08" height="12" style="fill:#142546"/><rect x="6.25" y="382.77" width="36.08" height="12" style="fill:#142546"/><path d="M500.28,137.9c-8.71-12.74-25-21.06-40.57-20.68A36.87,36.87,0,0,0,428.64,135l-.27.41,0,.07h0c-.11.2-.23.39-.32.59l-1,2.17c-.07.14-.15.28-.21.42L418,156.78,363.19,159c-.54,0-1.08.06-1.61.11a22.6,22.6,0,0,0-18.71,13.73,23.65,23.65,0,0,0,2.82,23.69l20.32,29a65.14,65.14,0,0,0-40.32,34.32l-5.44,11.32-20,15.75-.28.3a1.45,1.45,0,0,1-1.2.45,1.42,1.42,0,0,1-1.1-.64l-44.83-65.48a41,41,0,0,0-45.8-16.15L104.34,238.26c-1.66.53-3.31,1.12-4.91,1.76l-10,3.95L22.63,274.59l-7.95,1.49a11.23,11.23,0,0,0,2.71,22.24l3.83-.21a32.4,32.4,0,0,0,10.48,1.66c5.9,0,13.56-1.45,22.08-6.63,5.11-3.11,9.73-1.91,17.47.49,7.22,2.23,16.21,5,26.06.79a28,28,0,0,0,15.85-18.7l7.21.35h.23c33,.28,64.74-5.91,86.77-11.58l12.39,44.45a256,256,0,0,0,22.15,56.65,56,56,0,0,0,14.2,17.18H67.8v12H288.61l1.3,0,.71,0H440.43v-12H324.59a61.21,61.21,0,0,0,20.75-28l3-8.29c3.07-2.35,11-8.44,21.61-16.42,14.22-10.71,29.1-20.92,44.23-30.35a94.42,94.42,0,0,0,18.19-14.8,25.51,25.51,0,0,0,18.9-.11c10-3.93,16.88-13,19.37-20.27l1.15-2.89,26.67-64.81.06-.14a119.85,119.85,0,0,0,7.83-35.95h0A35,35,0,0,0,500.28,137.9ZM101.73,272a16.12,16.12,0,0,1-9.15,11.39c-5.79,2.49-11.35.77-17.78-1.23-7.7-2.38-17.27-5.34-27.26.73-13.09,7.95-22.41,3.9-22.73,3.76l-.38-.19,1.86-.34,67.76-31.05,8.26-3.28,5.4,12.84A10.65,10.65,0,0,0,101.73,272ZM460,129.22c11.44-.29,24,6.08,30.37,15.45.11.17.2.33.31.49L467,151a41.72,41.72,0,0,0-14.27-11.26l-9-4.34A24.92,24.92,0,0,1,460,129.22Zm-23.19,16.19,10.75,5.18a29.82,29.82,0,0,1,6,3.8L449,155.53l-17.37.7Zm-316,118.66h-.33l-6.81-16.19,5-1.62,7.13,17.81C124.19,264.08,122.5,264.09,120.82,264.07Zm213.24,86.59a49.28,49.28,0,0,1-31.9,30.27c-.61.18-1.22.36-1.84.52a41.38,41.38,0,0,1-9.56,1.32h-1.68a42.68,42.68,0,0,1-36.59-22.85,243.44,243.44,0,0,1-21.12-54L219,261.32c10.77-3.13,17.46-5.59,18.24-5.88L233,244.2c-.49.18-44.39,16.31-94.39,19.38l-8.41-21,80.37-25.73a29,29,0,0,1,32.38,11.44l44.83,65.49a13.91,13.91,0,0,0,3,3.13c3,8.41,15.39,37.71,44.83,49.51Zm8.08-14.58c-21.35-7.61-32.85-27-37.74-37.6a13.49,13.49,0,0,0,3.89-2.63L324.61,283l38,37.54C353.12,327.68,345.78,333.29,342.14,336.08Zm65.7-46.59c-12,7.51-23.93,15.51-35.46,23.84l-40.06-39.59,4.19-8.72a53.12,53.12,0,0,1,36.87-29l3.22,4.6c.58,4.2,2.84,14.58,11.2,21.45,5.15,4.24,11.55,6.38,19.08,6.38a44.71,44.71,0,0,0,6.2-.45l-1.66-11.88c-6.76.94-12.12-.16-15.94-3.27-6.4-5.21-7.1-14.69-7.1-14.75l-.09-1.71-32.84-46.85-.16-.22a11.48,11.48,0,0,1-1.41-11.71,10.6,10.6,0,0,1,8.87-6.56l.93-.07,87-3.51,42.89-10.67.08,0a2.34,2.34,0,0,1,.06.43,1.65,1.65,0,0,1-.18.31c-1.34,1.2-8.45,6.75-14.19,11.23l-5.1,4a19,19,0,0,1-15.47,3.66l-4.48-.9-80.58,9.8,1.45,11.91,6.07-.74,43,35.38.63.31a21.94,21.94,0,0,1,10.9,12,21.27,21.27,0,0,1,.79,2.54c.11,1.84.29,3,.32,3.19l.2,0a22.08,22.08,0,0,1-3.33,13.93l-.18.29A82.29,82.29,0,0,1,407.84,289.49ZM436.44,202a24.61,24.61,0,0,1-11.29-10.88l28.68-3.48,2.59.52a30.71,30.71,0,0,0,4.84.57l-3,6.16A15.31,15.31,0,0,1,451,202.1a16.52,16.52,0,0,1-5.4,1.53A17,17,0,0,1,436.44,202Zm6.31,13.69a59.62,59.62,0,0,0-4.29,11.44,33.67,33.67,0,0,0-7.67-5.43l-7.53-6.2,3.57-5.19a37.87,37.87,0,0,0,4.4,2.5A29.27,29.27,0,0,0,442.75,215.69Zm-24.81-13.64-4,5.8-16.27-13.39,15-1.83A35.71,35.71,0,0,0,417.94,202.05Zm42.72,55.07-1.23,3.11-.12.31c-1.52,4.55-6.39,10.68-12.44,13.06a13.82,13.82,0,0,1-6,1q1.46-2,2.79-4.12l.18-.29a34.17,34.17,0,0,0,4.6-25.18c-.31-6.49.45-22.49,13.37-35.66a27.11,27.11,0,0,0,7.29-9.26l3.26-6.76a39.93,39.93,0,0,0,2.61-7.19,31.35,31.35,0,0,0,6.66-4l5.09-4,5.95-4.65a111.59,111.59,0,0,1-5.35,18.74Z" style="fill:#142546"/></g></g></svg>