<?xml version="1.0" encoding="iso-8859-1"?>
<!-- Generator: Adobe Illustrator 19.0.1, SVG Export Plug-In . SVG Version: 6.00 Build 0)  -->
<svg version="1.1" xmlns="http://www.w3.org/2000/svg" xmlns:xlink="http://www.w3.org/1999/xlink" x="0px" y="0px"
	 viewBox="0 0 128 128" style="enable-background:new 0 0 128 128;" xml:space="preserve">
<g id="_x31_2">
	<g id="pin_24_">
		<path style="fill:#FC555D;" d="M66.441,4.882c-25.941,0-46.971,21.03-46.971,46.971C19.47,95.71,64,126.498,64,126.498
			s46.971-32.875,46.971-78.306C110.971,22.251,92.383,4.882,66.441,4.882z M65.221,85.5c-20.604,0-37.307-16.703-37.307-37.308
			c0-20.603,16.703-37.307,37.307-37.307c20.604,0,37.306,16.704,37.306,37.307C102.527,68.796,85.824,85.5,65.221,85.5z"/>
		<path style="fill:#E62917;" d="M64,126.498c0,0,46.971-32.875,46.971-78.306c0-25.941-19.485-44.454-46.971-43.247l0,7.161
			c20.604,0,36.086,15.483,36.086,36.087c0,20.604-15.482,36.087-36.086,36.087V126.498z"/>
		<path style="fill:#95FF50;" d="M64.006,12.181c-19.895,0-36.006,16.124-36.006,36.006c0,19.895,16.111,36.006,36.006,36.006
			c19.883,0,36.006-16.111,36.006-36.006C100.012,28.305,83.888,12.181,64.006,12.181z M37.153,50.69v-7.812h53.705v7.812H37.153z"
			/>
		<path style="fill:#1E1E1E;" d="M63.983,128l-0.705-0.517c-0.475-0.348-47.47-35.325-47.47-79.291C15.808,21.618,37.427,0,64,0
			s48.192,21.618,48.192,48.192c0,45.54-47.017,78.974-47.492,79.306L63.983,128z M64,2.441c-25.227,0-45.751,20.524-45.751,45.751
			c0,39.798,39.927,72.252,45.766,76.783c5.874-4.371,45.735-35.577,45.735-76.783C109.751,22.965,89.227,2.441,64,2.441z M64,85.42
			c-20.527,0-37.227-16.7-37.227-37.228c0-20.527,16.7-37.227,37.227-37.227s37.227,16.7,37.227,37.227
			C101.227,68.72,84.527,85.42,64,85.42z M64,13.406c-19.181,0-34.786,15.605-34.786,34.786c0,19.182,15.605,34.787,34.786,34.787
			s34.786-15.605,34.786-34.787C98.786,29.011,83.181,13.406,64,13.406z"/>
	</g>
	<g id="icon_24_">
		<path style="fill:#65BEF4;" d="M51.909,61.958h-6.005c-1.651,0-3.002-1.351-3.002-3.002V34.611c0-1.651,1.351-3.002,3.002-3.002
			h6.005c1.651,0,3.002,1.351,3.002,3.002v24.344C54.912,60.607,53.561,61.958,51.909,61.958z M85.098,58.955V34.611
			c0-1.651-1.351-3.002-3.002-3.002h-6.005c-1.651,0-3.002,1.351-3.002,3.002v24.344c0,1.651,1.351,3.002,3.002,3.002h6.005
			C83.747,61.958,85.098,60.607,85.098,58.955z"/>
		<path style="fill:#1E1E1E;" d="M86.317,41.658v-4.04c0-3.991-3.235-7.226-7.226-7.226c-3.979,0-7.226,3.235-7.226,7.226v4.04
			H56.133v-4.04c0-3.991-3.247-7.226-7.226-7.226s-7.226,3.235-7.226,7.226v4.04h-5.749V51.91h5.749v4.04
			c0,3.991,3.247,7.226,7.226,7.226s7.226-3.235,7.226-7.226v-4.04h15.733v4.04c0,3.991,3.247,7.226,7.226,7.226
			c3.991,0,7.226-3.235,7.226-7.226v-4.04h5.761V41.658H86.317z M41.682,49.469h-3.308v-5.37h3.308V49.469z M53.692,55.95
			c0,2.636-2.148,4.785-4.785,4.785c-2.636,0-4.785-2.148-4.785-4.785V37.618c0-2.636,2.148-4.785,4.785-4.785
			c2.636,0,4.785,2.148,4.785,4.785V55.95z M71.866,49.469H56.133v-5.37h15.733V49.469z M83.876,55.95
			c0,2.636-2.148,4.785-4.785,4.785c-2.636,0-4.785-2.148-4.785-4.785V37.618c0-2.636,2.148-4.785,4.785-4.785
			c2.636,0,4.785,2.148,4.785,4.785V55.95z M89.637,49.469h-3.32v-5.37h3.32V49.469z"/>
	</g>
</g>
<g id="Layer_1">
</g>
</svg>
