<?xml version="1.0" encoding="iso-8859-1"?>
<!-- Uploaded to: SVG Repo, www.svgrepo.com, Generator: SVG Repo Mixer Tools -->
<svg height="800px" width="800px" version="1.1" id="Layer_1" xmlns="http://www.w3.org/2000/svg" xmlns:xlink="http://www.w3.org/1999/xlink" 
	 viewBox="0 0 512 512" xml:space="preserve">
<path style="fill:#FFFFFF;" d="M346.614,106.287c0,50.051-40.563,90.624-90.614,90.624s-90.614-40.573-90.614-90.624
	c0-50.04,40.563-90.614,90.614-90.614S346.614,56.247,346.614,106.287z"/>
<path style="fill:#C8C6CD;" d="M346.614,106.287c0,50.051-40.563,90.624-90.614,90.624V15.673
	C306.051,15.673,346.614,56.247,346.614,106.287z"/>
<polygon style="fill:#535353;" points="310.857,480.653 310.857,512 201.143,512 201.143,480.653 240.327,480.653 240.327,203.755 
	271.673,203.755 271.673,480.653 "/>
<polygon style="fill:#2B292C;" points="310.857,480.653 310.857,512 256,512 256,203.755 271.673,203.755 271.673,480.653 "/>
<path style="fill:#E70020;" d="M256,0c-58.608,0-106.287,47.679-106.287,106.287c0,58.619,47.679,106.297,106.287,106.297
	s106.287-47.679,106.287-106.297C362.287,47.679,314.608,0,256,0z M256,181.238c-41.326,0-74.94-33.625-74.94-74.951
	c0-41.315,33.614-74.94,74.94-74.94s74.94,33.625,74.94,74.94C330.94,147.613,297.326,181.238,256,181.238z"/>
<path style="fill:#535353;" d="M294.181,79.768c-1.567-3.856-3.72-7.304-6.457-10.355c-2.727-3.041-5.998-5.507-9.812-7.387
	c-3.814-1.881-7.993-2.832-12.57-2.832h-40.73v95.451h22.047v-30.783h19.352c4.577,0,8.746-0.899,12.507-2.685
	c3.762-1.797,6.969-4.211,9.613-7.262c2.644-3.051,4.702-6.499,6.186-10.355c1.473-3.856,2.215-7.889,2.215-12.1
	C296.532,87.521,295.748,83.623,294.181,79.768z M271.391,101.272c-1.881,2.247-4.117,3.365-6.719,3.365h-18.014V78.555h17.209
	c1.254,0,2.508,0.251,3.762,0.742c1.254,0.491,2.372,1.275,3.365,2.351c0.982,1.076,1.766,2.424,2.351,4.033
	c0.575,1.609,0.867,3.542,0.867,5.778C274.213,95.765,273.272,99.035,271.391,101.272z"/>
<path style="fill:#990013;" d="M362.287,106.287c0,58.619-47.679,106.297-106.287,106.297v-31.347
	c41.326,0,74.94-33.625,74.94-74.951c0-41.315-33.614-74.94-74.94-74.94V0C314.608,0,362.287,47.679,362.287,106.287z"/>
<path style="fill:#2B292C;" d="M296.532,91.46c0,4.211-0.742,8.244-2.215,12.1c-1.484,3.856-3.542,7.304-6.186,10.355
	c-2.644,3.051-5.851,5.465-9.613,7.262c-3.762,1.787-7.931,2.685-12.507,2.685H256v-19.226h8.673c2.602,0,4.838-1.118,6.719-3.365
	c1.881-2.236,2.821-5.507,2.821-9.812c0-2.236-0.293-4.169-0.867-5.778c-0.585-1.609-1.369-2.957-2.351-4.033
	c-0.993-1.076-2.111-1.86-3.365-2.351c-1.254-0.491-2.508-0.742-3.762-0.742H256V59.193h9.341c4.577,0,8.756,0.951,12.57,2.832
	c3.814,1.881,7.084,4.347,9.812,7.387c2.738,3.051,4.89,6.499,6.457,10.355C295.748,83.623,296.532,87.521,296.532,91.46z"/>
</svg>