<?xml version="1.0" encoding="utf-8"?>

<!DOCTYPE svg PUBLIC "-//W3C//DTD SVG 1.1//EN" "http://www.w3.org/Graphics/SVG/1.1/DTD/svg11.dtd">
<!-- Uploaded to: SVG Repo, www.svgrepo.com, Generator: SVG Repo Mixer Tools -->
<svg version="1.1" id="_x32_" xmlns="http://www.w3.org/2000/svg" xmlns:xlink="http://www.w3.org/1999/xlink" 
	 width="800px" height="800px" viewBox="0 0 512 512"  xml:space="preserve">
<style type="text/css">
<![CDATA[
	.st0{fill:#000000;}
]]>
</style>
<g>
	<polygon class="st0" points="422.844,309.25 422.844,309.219 365.813,250.766 328.234,309.25 	"/>
	<polygon class="st0" points="195.375,332.938 243.219,512 291.063,332.938 	"/>
	<polygon class="st0" points="283.25,309.219 242.359,252.891 202.781,309.219 202.781,309.25 283.25,309.25 	"/>
	<polygon class="st0" points="305.922,300.094 342.047,243.875 265.141,243.875 	"/>
	<polygon class="st0" points="219.719,243.875 144.406,243.875 180.375,299.844 	"/>
	<polygon class="st0" points="63.594,309.219 63.594,309.25 158.219,309.25 120.641,250.766 	"/>
	<polygon class="st0" points="217.938,509.188 217.938,509.188 217.938,509.188 	"/>
	<polygon class="st0" points="61.719,332.938 217.938,509.188 170.844,332.938 	"/>
	<polygon class="st0" points="268.531,509.188 268.531,509.188 424.734,332.938 315.609,332.938 	"/>
	<path class="st0" d="M500.594,181.438c-25.844,0-34.781-6.484-39.813-11.5c-5-5.031-11.5-13.969-11.5-39.813
		c0-0.969-0.094-3.75-3.188-3.75c-3.063,0-3.188,2.781-3.188,3.75c0,25.844-6.484,34.781-11.5,39.813
		c-5.031,5.016-13.969,11.5-39.797,11.5c-0.984,0-3.766,0.109-3.766,3.188c0,3.063,2.781,3.188,3.766,3.188
		c25.828,0,34.766,6.5,39.797,11.5c5.016,5.031,11.5,13.969,11.5,39.813c0,1,0.125,3.75,3.188,3.75c3.094,0,3.188-2.75,3.188-3.75
		c0-25.844,6.5-34.781,11.5-39.813c5.031-5.016,13.969-11.5,39.813-11.5c0.984,0,3.766-0.094,3.766-3.188
		C504.359,181.563,501.578,181.438,500.594,181.438z"/>
	<path class="st0" d="M116.25,84.438c35.516,0,47.813,8.938,54.719,15.844c6.875,6.891,15.813,19.188,15.813,54.719
		c0,1.344,0.172,5.156,4.375,5.156c4.25,0,4.375-3.813,4.375-5.156c0-35.531,8.938-47.828,15.828-54.719
		c6.891-6.906,19.172-15.844,54.703-15.844c1.375,0,5.188-0.125,5.188-4.375c0-4.203-3.813-4.375-5.188-4.375
		c-35.531,0-47.813-8.906-54.703-15.813s-15.828-19.188-15.828-54.703c0-1.359-0.125-5.172-4.375-5.172
		c-4.203,0-4.375,3.813-4.375,5.172c0,35.516-8.938,47.797-15.813,54.703c-6.906,6.906-19.203,15.813-54.719,15.813
		c-1.344,0-5.156,0.156-5.156,4.391C111.094,84.281,114.906,84.438,116.25,84.438z"/>
	<path class="st0" d="M64.156,245.625c0-23.766,5.969-32,10.594-36.609c4.625-4.625,12.844-10.594,36.625-10.594
		c0.891,0,3.453-0.094,3.453-2.922s-2.563-2.938-3.453-2.938c-23.781,0-32-5.969-36.625-10.594s-10.594-12.844-10.594-36.594
		c0-0.906-0.094-3.469-2.922-3.469s-2.922,2.563-2.922,3.469c0,23.75-5.984,31.969-10.594,36.594
		c-4.625,4.625-12.844,10.594-36.625,10.594c-0.906,0-3.453,0.109-3.453,2.938c0,2.813,2.547,2.922,3.453,2.922
		c23.781,0,32,5.984,36.625,10.594c4.609,4.609,10.594,12.844,10.594,36.609c0,0.906,0.094,3.469,2.922,3.469
		S64.156,246.531,64.156,245.625z"/>
</g>
</svg>