<svg xmlns="http://www.w3.org/2000/svg" viewBox="0 0 512 512"><title>Weight_loss</title><g id="artwork"><g id="_16_weight_loss" data-name="16_weight_loss"><path d="M339,219.93s-38.16-53-22.87-94.22h0l13-31.11c-104.33-35.84-196.45,0-196.45,0L145.1,123s15.39,43.08-23.84,99.44S90.45,354,105.91,458.46H209.26S225.37,372.58,223.71,345h15.75s8.3,96.25,14.44,113.43H355.73S395.88,303.5,339,219.93Z" style="fill:#dcd3d4"/><path d="M185.21,117.73s15.38,43.76-23.84,101S130.56,352.43,146,458.55H249.37s16.11-87.24,14.44-115.23h15.76s8.3,97.78,14.44,115.23H395.84S436,301.14,379.07,216.24c0,0-38.16-53.84-22.88-95.7C356.19,120.54,279.6,93.46,185.21,117.73Z" style="fill:#f3b5af"/><path d="M136.27,286.13S240.63,276,267.05,343.32L249.37,458.55H228.81S263.81,298,133.1,311Z" style="fill:#e08476"/><path d="M408,286.12S303.63,276,277.2,343.31l17.68,115.23h20.56S280.44,298,411.15,311Z" style="fill:#e08476"/><path d="M172.7,88.93s92.13-36.41,196.45,0l-13,31.61s-71.93-26.42-171-2.81Z" style="fill:#4966a2"/><path d="M146.83,245.78s138.9,15.88,246.44-1.45c0,0,12,35.71,12.74,44.2,0,0-104.7-15.89-131.28,54.79h-7.68s-28.32-67.73-130.78-57.19C136.27,286.13,140.85,254.9,146.83,245.78Z" style="fill:#fff"/><path d="M279,188.19a7.68,7.68,0,1,1-7.67-7.67A7.67,7.67,0,0,1,279,188.19Z" style="fill:#122546"/><path d="M371.41,190.91a100.18,100.18,0,0,1-8-18.83c14.65-2.29,26.94-5.14,35.84-8.33,4.89-1.75,19.76-7.07,19.76-17.7s-14.93-16-19.83-17.72c-9.07-3.24-21.63-6.13-36.63-8.44a101.25,101.25,0,0,1,11.64-27.68l23-33.2-9.86-6.84L366.78,81.81a312.12,312.12,0,0,0-36.39-9.46l-2.3,11.78a299.13,299.13,0,0,1,32.21,8.2,114.06,114.06,0,0,0-8,19.67c-72.49-17.15-143.27-5.29-163.13-1.27a116.21,116.21,0,0,0-7.59-18.41A297,297,0,0,1,306,80.65l1.42-11.92a312.37,312.37,0,0,0-38.56-2.15,308.72,308.72,0,0,0-93.7,15.23c-5.7-8.37-19.06-28-20.09-29.55l-10,6.66c1.33,2,21.59,31.75,22.68,33.35l0,0a98.41,98.41,0,0,1,11.52,27.39c-15.73,2.37-28.89,5.37-38.25,8.73-4.84,1.75-19.6,7.06-19.6,17.64s15,16,19.87,17.75c9.17,3.26,21.91,6.18,37.11,8.5a100.9,100.9,0,0,1-7.94,18.61c-2.53,4.59-5.13,9.05-7.89,13.76-25.39,43.47-54.16,92.73-22.43,255l11.78-2.3c-15.06-77-16.21-127.65-10.62-164.19,11.73-1.4,53.38-4.61,87,15,17.46,10.2,25.66,22.44,29.5,31.29-.42,15.8-1.44,31.76-3,47.46a633.39,633.39,0,0,1-11.22,70.29l11.72,2.56a645.47,645.47,0,0,0,11.44-71.63c1.32-12.9,2.25-26,2.79-39a14.3,14.3,0,0,0,1.75.11h.21a13.84,13.84,0,0,0,2.5-.23c.53,13.06,1.46,26.17,2.79,39.11a643.14,643.14,0,0,0,11.44,71.63l11.72-2.56A635.77,635.77,0,0,1,288.64,387c-1.64-16.12-2.68-32.52-3.08-48.73h-.15c4.22-8.74,12.67-20.31,29.51-30,33.22-19.11,74-16.31,85.65-15C406.15,329.76,405,380.42,390,457.4l11.78,2.3c31.73-162.3,2.95-211.56-22.44-255C376.54,200,373.94,195.5,371.41,190.91Zm-11.2-59.24c34.4,5.24,45.17,11.84,46.7,14.38-1.52,2.53-12.2,9.1-46.31,14.33A93.24,93.24,0,0,1,360.21,131.67ZM133.5,146.05c1.55-2.56,12.58-9.32,48.13-14.59a93.48,93.48,0,0,1-.41,29.13C146,155.34,135,148.62,133.5,146.05ZM398.34,281c-16-1.37-56-2.36-89.4,16.89-21.38,12.3-31.22,27.57-35.7,38.22a2,2,0,0,1-1.82,1.25h-.21a2,2,0,0,1-1.84-1.18c-4.32-10.65-13.91-25.93-35-38.27-33.81-19.76-74.56-18.47-90.8-17a188.51,188.51,0,0,1,8.33-28.45,1131.14,1131.14,0,0,0,119.3,6.34h.56A1134.19,1134.19,0,0,0,390,252.51,189,189,0,0,1,398.34,281ZM271.71,246.8h-.55a1121.35,1121.35,0,0,1-114.45-5.9,337.52,337.52,0,0,1,16.21-30.18c2.67-4.57,5.43-9.3,8-14a110.2,110.2,0,0,0,9.44-22.75c4.92.61,10,1.16,15.31,1.65l1.11-12c-4.72-.44-9.32-.93-13.76-1.47a108.4,108.4,0,0,0-.85-39.8c19.68-3.93,88.4-15.28,157.21,1.1a108.43,108.43,0,0,0-.65,38.54c-10.9,1.34-22.8,2.4-35.18,3.14l11-11-8.49-8.49-25.65,25.65L317.14,198l8.49-8.48-12.38-12.37c13.51-.78,26.27-1.93,38.16-3.43a109.83,109.83,0,0,0,9.49,22.93c2.6,4.73,5.36,9.46,8,14a334.5,334.5,0,0,1,16.24,30.22A1119.5,1119.5,0,0,1,271.71,246.8Z" style="fill:#142546"/></g></g></svg>