<svg xmlns="http://www.w3.org/2000/svg" viewBox="0 0 512 512"><title>Yoga</title><g id="artwork"><g id="_18_Yoga" data-name="18_Yoga"><path d="M236.43,230.1a4.51,4.51,0,0,0-4.14,2.74l-20.38,48.1-83.3,12.54a18.75,18.75,0,0,0-13.27,8.88L114,304.63a18.9,18.9,0,0,0,.47,20.21A19.1,19.1,0,0,0,135,332.59l25.74-9.28c1.53,7.89,3.09,26.05-8.62,45.94a41.32,41.32,0,0,0-26.85,5.4,26.68,26.68,0,0,0-21.1,11.87c-11.46,2.84-50.55,16.23-38.27,65.25l19.87-1s-16.88-42.55,26.6-48.87c10.93,0,26,1.48,35,8.22a155.22,155.22,0,0,0,23.27-25.84c9.76-8.45,21.81-48.59,18.19-68.34,0-1,0-1.93.05-2.79l15.39-5.55,16.21-5.85,0-.08c13.52-4.22,20.47-17.08,20.47-28.05v-39A4.49,4.49,0,0,0,236.43,230.1Z" style="fill:#dcd3d4"/><path d="M187.18,171.85v53.89s-19.66,17.47-16.24,38.69l-45.71,7.7S171.69,178.8,187.18,171.85Z" style="fill:#e08476"/><path d="M307.32,172.85v53.89s19.66,17.47,16.24,38.69l45.71,7.7S322.81,179.8,307.32,172.85Z" style="fill:#e08476"/><path d="M191.63,170.69s8.77-7.11,26.5-7.07c0,0-1.47,27.88,29.63,27.88s28.15-27.88,28.15-27.88,18.94,2.69,27.76,8v55s19.19,18.06,16.19,37.78l-43.31-4.27-22.43-51-13.6-.18-22.75,51.16-42.67,5.71S170.88,251,188.87,226l2.76-56.82" style="fill:#ffeef0"/><path d="M178.39,298.2s-1.53,8.68,23.47,8.68H303.45s10.61-2.13,13-8.68c0,0-67.6-20.3-67.75-37.79C248.71,260.41,244,281.14,178.39,298.2Z" style="fill:#dcd3d4"/><path d="M375.66,283.4l-1.36-2.26A18.78,18.78,0,0,0,361,272.25l-83.3-12.54-20.38-48.1a4.5,4.5,0,0,0-8.63,1.76v39c0,11,7,23.83,20.47,28.06l0,.08,16.22,5.85,69.3,25a18.86,18.86,0,0,0,21-28Z" style="fill:#f3b5af"/><path d="M120,283.4l1.36-2.26a18.78,18.78,0,0,1,13.28-8.89l83.3-12.54,20.38-48.1a4.5,4.5,0,0,1,8.63,1.76v39c0,11-7,23.83-20.47,28.06l0,.08-16.22,5.85-69.29,25a19.09,19.09,0,0,1-20.52-7.76A18.9,18.9,0,0,1,120,283.4Z" style="fill:#f3b5af"/><path d="M187.58,307.18h119.1s-4.85,40.59,6.17,49c0,0-67.56,17.06-130.77,0C182.08,356.21,192.3,330.2,187.58,307.18Z" style="fill:#f3b5af"/><path d="M191.85,159.4V91.81c0-26.78,25-48.5,55.91-48.5,15.44,0,29.42,5.42,39.53,14.21s16.38,20.9,16.38,34.29v71.48" style="fill:#3d5890"/><path d="M191.85,160.12V99.27c0-24.1,20.56-43.65,45.91-43.65A47,47,0,0,1,270.22,68.4a42.48,42.48,0,0,1,13.45,30.87v64.35" style="fill:#4966a2"/><path d="M248.89,157.29h-3.46a34.78,34.78,0,0,1-34.78-34.79V105.33h73V122.5A34.78,34.78,0,0,1,248.89,157.29Z" style="fill:#f3b5af"/><path d="M223.54,152.2l-5.41,11.42v3.5c0,13.47,12.6,24.38,28.15,24.38h0c15.55,0,28.15-10.91,28.15-24.38v-3.5l-4.52-10.33" style="fill:#e08476"/><path d="M308.67,447.81c-63.52,18-112.77,0-112.77,0l56.38-18.33Z" style="fill:#3d5890"/><path d="M179.26,360s65.36,15.34,135.73,0c0,0,3.63,26,28.25,36.81l-104.8-6.28s-19.72-17.7-43.9-4.28-33.21-1.41-33.21-1.41S181.66,370.33,179.26,360Z" style="fill:#4966a2"/><path d="M376.63,468.2l-125.7-35.48,5.9-40.05s1.51,0,11.33.73L394,402.79A32.71,32.71,0,0,1,420.7,429.2,32.19,32.19,0,0,1,407.33,461l-3.72,2.59A32.21,32.21,0,0,1,376.63,468.2Z" style="fill:#4966a2"/><path d="M421.15,433.22a32.22,32.22,0,0,1-13.83,26.65l-3.72,2.58a32.22,32.22,0,0,1-27,4.59l-125.7-35.48,2.13-14.47C281.58,426.07,380,454.52,421.15,433.22Z" style="fill:#3d5890"/><path d="M125.48,468.2l112.89-29.76-5.84-10.82h0s-82.49-28-124.44-24.83A32.71,32.71,0,0,0,81.41,429.2,32.19,32.19,0,0,0,94.79,461l3.72,2.59A32.19,32.19,0,0,0,125.48,468.2Z" style="fill:#4966a2"/><path d="M230.24,427.62l-95.47-22.2-11.69.19a6.93,6.93,0,0,1-7-8h0a6.93,6.93,0,0,1,5.84-5.76l6.75-1s14.17-10.9,38.05-2.31c26.4,9.49,35.12-23.37,69.38,2Z" style="fill:#f3b5af"/><path d="M81,433.22a32.22,32.22,0,0,0,13.83,26.65l3.72,2.58a32.22,32.22,0,0,0,27,4.59l125.7-35.48L225.48,424C197.36,430.29,122.09,454.52,81,433.22Z" style="fill:#3d5890"/><rect x="227.81" y="402.97" width="35.51" height="14.31" transform="translate(-199.58 584.32) rotate(-80.46)" style="fill:#fff"/><rect x="18.78" y="444.77" width="23.97" height="12" style="fill:#142546"/><path d="M493.21,444.77H425.26a38,38,0,0,0,1.09-17.26A38.66,38.66,0,0,0,394.8,396.2l-49.08-3.67c-31-17.43-34.29-66.78-34.56-81.35a19,19,0,0,0,8.4-6.1L352.64,317l.58.18a25.62,25.62,0,0,0,6.18.76,24.8,24.8,0,0,0,21.4-37.64l-1.33-2.22L333.6,197.88c-5.57-13.22-14-23.77-24.15-30.75V95.19a55.64,55.64,0,0,0-18.3-41.08,63.75,63.75,0,0,0-43.61-16.8c-34.14,0-61.91,26-61.91,57.88v70.46c-11.26,7-20.64,18.29-26.61,32.73L115.15,278l-1.32,2.18a24.93,24.93,0,0,0,27.59,36.87l32-11.51a19.59,19.59,0,0,0,9.06,6c.21,12.11-.83,47.33-18.47,69.21-18.54-4.37-31,1.79-35.14,4.33l-5.42.79a12.85,12.85,0,0,0-10.73,9.86l-5,.37-.6.08A38.68,38.68,0,0,0,75.5,427.51a38,38,0,0,0,1.09,17.26H54.82v12H82.61a37.8,37.8,0,0,0,8.75,8.5l3.72,2.59a38.1,38.1,0,0,0,32,5.43l68.3-18.94c7.18,2.23,27,7.47,54.3,7.47a217.14,217.14,0,0,0,56.54-7.54l68.55,19a38.1,38.1,0,0,0,32-5.43l3.72-2.59a37.8,37.8,0,0,0,8.75-8.5h74ZM360.13,278.19a12.7,12.7,0,0,1,9,6l1.36,2.27a12.85,12.85,0,0,1-14.12,19.11l-80-28.86L279.27,266l80.86,12.18Zm-165.66,35h104.7A169,169,0,0,0,304.68,352c-49.12,10.65-95.73,4-114.62.36A163.11,163.11,0,0,0,194.47,313.18Zm104.75-12H193.34a23.92,23.92,0,0,1-6-.67l40-14.41a34.11,34.11,0,0,0,5-1.8l.36-.13v0a34.84,34.84,0,0,0,14.46-12.64,34.7,34.7,0,0,0,14.78,12.78v0l.26.09a35.24,35.24,0,0,0,4.5,1.63l39.45,14.22A22.26,22.26,0,0,1,299.22,301.18Zm-73.73-43.86,15.67-37V252a24.08,24.08,0,0,1-11.65,20.32ZM253.16,252v-31.6L269,257.83l-3.92,14.61A24.06,24.06,0,0,1,253.16,252Zm59.52-65.73a63.87,63.87,0,0,1,10,16.63l.15.35,35.81,62.63-29.52-4.45a59.37,59.37,0,0,0-10.79-29.63l-5.64-7.67Zm-115-91c0-25.3,22.39-45.88,49.91-45.88A51.78,51.78,0,0,1,283,62.91a43.72,43.72,0,0,1,14.46,32.28v65.67a50.57,50.57,0,0,0-17.62-3.24L277.38,152a40.67,40.67,0,0,0,12.67-29.51V99.33H205V122.5a40.64,40.64,0,0,0,13.2,30l-2.42,5.11h-2.64a50.46,50.46,0,0,0-15.54,2.45Zm51.64,56.1h-3.46A28.81,28.81,0,0,1,217,122.5V111.33h61V122.5A28.81,28.81,0,0,1,249.27,151.29Zm20.64,13.58v2.25c0,10.14-9.94,18.38-22.15,18.38s-22.15-8.24-22.15-18.38V165l2.67-5.65a40.57,40.57,0,0,0,17.53,4h3.46A40.58,40.58,0,0,0,267.36,159Zm-84.27,73.29,7.94-11V174.9a39.61,39.61,0,0,1,19.59-5.28h.56c1.44,15.59,16.14,27.88,34,27.88s32.55-12.26,34-27.82a40.13,40.13,0,0,1,18.9,6.08V228l8,10.85a46.42,46.42,0,0,1,8.17,20.67l-36.34-5.47-19.17-45.22a10.47,10.47,0,0,0-14.15-5.38A10.47,10.47,0,0,0,233,208.84L213.88,254l-36.45,5.49A48.38,48.38,0,0,1,185.64,238.16Zm-15.95-34.29.3-.62a63,63,0,0,1,11.59-18.67v38.67l-5.68,7.91a61.19,61.19,0,0,0-10.75,30.14l-29.56,4.45ZM138.24,305.48a12.86,12.86,0,0,1-14.12-19.12l1.36-2.26a12.71,12.71,0,0,1,9-6.05h0l80.86-12.17,2.88,10.74Zm48.34,58.42a315.81,315.81,0,0,0,61.14,5.93,280.21,280.21,0,0,0,60.67-6.42c3.75,9.88,9,19.54,16.36,27.55l-84.18-6.3c-21.84-15.47-35.68-9.46-46.84-4.61-6.07,2.64-11.15,4.84-17.34,4.11A87.5,87.5,0,0,0,186.58,363.9ZM250,397.4l-4,27.72-6.67-1.85,4.2-26.36Zm-125.64,1.14a.92.92,0,0,1,.78-.77l6.75-1,1.5-.19,1.24-1c.49-.36,12.22-8.72,32.42-1.46,13.31,4.79,23,.58,31.49-3.13,10.11-4.4,18.23-7.92,33.41,2.22l-4.31,27.05L137.7,399.41l-12.43.2a.93.93,0,0,1-.71-.32A.92.92,0,0,1,124.34,398.54Zm-.46,63.19A26.15,26.15,0,0,1,101.93,458l-3.72-2.59a26.31,26.31,0,0,1-10.88-25.9,26.64,26.64,0,0,1,21.53-21.45l7-.53a12.79,12.79,0,0,0,9.59,4.06l11-.17,91.84,21.35Zm96.24-14.24L250.94,439l30.23,8.38A202.81,202.81,0,0,1,220.12,447.49Zm183.52,7.93L399.92,458A26.11,26.11,0,0,1,378,461.73L257.63,428.35,262,398.29l131,9.78a26.62,26.62,0,0,1,21.52,21.45A26.31,26.31,0,0,1,403.64,455.42Z" style="fill:#142546"/><path d="M254.12,341.85a6.8,6.8,0,1,1-6.8-6.79A6.8,6.8,0,0,1,254.12,341.85Z" style="fill:#122546"/></g></g></svg>