<svg width="194" height="172" viewBox="0 0 194 172" fill="none" xmlns="http://www.w3.org/2000/svg">
<g filter="url(#filter0_i_54_151)">
<path d="M144.355 107.723C144.329 109.403 142.932 110.773 141.252 110.76L132.168 110.704C130.488 110.692 129.134 109.309 129.163 107.627L130.075 50.7968C130.101 49.1167 131.499 47.7512 133.18 47.7613L142.265 47.83C143.946 47.8401 145.299 49.2253 145.27 50.9077L144.355 107.723Z" fill="#BED2E1"/>
</g>
<path d="M132.165 111.204L132.164 111.204C130.207 111.19 128.629 109.58 128.663 107.619L132.165 111.204ZM132.165 111.204L141.248 111.26C141.249 111.26 141.249 111.26 141.249 111.26C143.204 111.274 144.824 109.684 144.855 107.731L145.77 50.9163L132.165 111.204ZM129.575 50.7888L128.663 107.618L145.77 50.9157C145.803 48.9558 144.228 47.342 142.268 47.33C142.268 47.33 142.268 47.33 142.268 47.33L133.184 47.2613L133.183 47.2613C131.228 47.2496 129.606 48.8341 129.575 50.7888C129.575 50.7888 129.575 50.7888 129.575 50.7888Z" stroke="url(#paint0_linear_54_151)"/>
<g filter="url(#filter1_i_54_151)">
<path d="M163.355 107.723C163.329 109.403 161.932 110.773 160.252 110.76L151.168 110.704C149.488 110.692 148.134 109.309 148.163 107.627L149.075 50.7968C149.101 49.1167 150.499 47.7512 152.18 47.7613L161.265 47.83C162.946 47.8401 164.299 49.2253 164.27 50.9077L163.355 107.723Z" fill="#BED2E1"/>
</g>
<path d="M151.165 111.204L151.164 111.204C149.207 111.19 147.629 109.58 147.663 107.619L151.165 111.204ZM151.165 111.204L160.248 111.26C160.249 111.26 160.249 111.26 160.249 111.26C162.204 111.274 163.824 109.684 163.855 107.731L164.77 50.9163L151.165 111.204ZM148.575 50.7888L147.663 107.618L164.77 50.9157C164.803 48.9558 163.228 47.342 161.268 47.33C161.268 47.33 161.268 47.33 161.268 47.33L152.184 47.2613L152.183 47.2613C150.228 47.2496 148.606 48.8341 148.575 50.7888C148.575 50.7888 148.575 50.7888 148.575 50.7888Z" stroke="url(#paint1_linear_54_151)"/>
<g filter="url(#filter2_i_54_151)">
<path d="M63.3554 107.723C63.3286 109.403 61.9315 110.773 60.252 110.76L51.1676 110.704C49.4882 110.692 48.1339 109.309 48.1628 107.627L49.0746 50.7968C49.1014 49.1167 50.4986 47.7512 52.1802 47.7613L61.2648 47.83C62.9464 47.8401 64.2986 49.2253 64.2697 50.9077L63.3554 107.723Z" fill="#BED2E1"/>
</g>
<path d="M51.1646 111.204L51.164 111.204C49.2074 111.19 47.6295 109.58 47.6629 107.619L51.1646 111.204ZM51.1646 111.204L60.2484 111.26C60.2485 111.26 60.2487 111.26 60.2488 111.26C62.2037 111.274 63.8242 109.684 63.8554 107.731L64.7696 50.9163L51.1646 111.204ZM48.5746 50.7888L47.6629 107.618L64.7696 50.9157C64.803 48.9558 63.2281 47.342 61.2682 47.33C61.2681 47.33 61.268 47.33 61.2679 47.33L52.1839 47.2613L52.1832 47.2613C50.2278 47.2496 48.6059 48.8341 48.5746 50.7888C48.5746 50.7888 48.5746 50.7888 48.5746 50.7888Z" stroke="url(#paint2_linear_54_151)"/>
<g filter="url(#filter3_i_54_151)">
<path d="M44.3554 107.723C44.3286 109.403 42.9315 110.773 41.252 110.76L32.1676 110.704C30.4882 110.692 29.1339 109.309 29.1628 107.627L30.0746 50.7968C30.1014 49.1167 31.4986 47.7512 33.1802 47.7613L42.2648 47.83C43.9464 47.8401 45.2986 49.2253 45.2697 50.9077L44.3554 107.723Z" fill="#BED2E1"/>
</g>
<path d="M32.1646 111.204L32.164 111.204C30.2074 111.19 28.6295 109.58 28.6629 107.619L32.1646 111.204ZM32.1646 111.204L41.2484 111.26C41.2485 111.26 41.2487 111.26 41.2488 111.26C43.2037 111.274 44.8242 109.684 44.8554 107.731L45.7696 50.9163L32.1646 111.204ZM29.5746 50.7888L28.6629 107.618L45.7696 50.9157C45.803 48.9558 44.2281 47.342 42.2682 47.33C42.2681 47.33 42.268 47.33 42.2679 47.33L33.1839 47.2613L33.1832 47.2613C31.2278 47.2496 29.6059 48.8341 29.5746 50.7888C29.5746 50.7888 29.5746 50.7888 29.5746 50.7888Z" stroke="url(#paint3_linear_54_151)"/>
<g filter="url(#filter4_i_54_151)">
<path d="M79.2188 154.219C78.4844 155.141 77.5781 155.945 76.5 156.633C75.4219 157.32 74.2656 157.891 73.0312 158.344C71.7969 158.797 70.5312 159.133 69.2344 159.352C67.9375 159.586 66.7031 159.703 65.5312 159.703C63.2656 159.703 61.1797 159.297 59.2734 158.484C57.3672 157.672 55.7188 156.555 54.3281 155.133C52.9531 153.695 51.875 152.008 51.0938 150.07C50.3125 148.133 49.9219 146.047 49.9219 143.812C49.9219 142.109 50.1172 140.445 50.5078 138.82C50.8984 137.18 51.4531 135.641 52.1719 134.203C52.9062 132.75 53.7969 131.422 54.8438 130.219C55.8906 129 57.0781 127.953 58.4062 127.078C59.7344 126.203 61.1875 125.523 62.7656 125.039C64.3438 124.555 66.0312 124.312 67.8281 124.312C68.5 124.312 69.2188 124.344 69.9844 124.406C70.75 124.453 71.5078 124.547 72.2578 124.688C73.0234 124.812 73.7656 124.992 74.4844 125.227C75.2031 125.461 75.8594 125.75 76.4531 126.094L75.7969 135.047C74.9219 134.719 74.0156 134.5 73.0781 134.391C72.1562 134.266 71.25 134.203 70.3594 134.203C69.1094 134.203 67.9375 134.398 66.8438 134.789C65.7656 135.164 64.8203 135.711 64.0078 136.43C63.2109 137.148 62.5781 138.023 62.1094 139.055C61.6406 140.086 61.4062 141.25 61.4062 142.547C61.4062 143.359 61.5156 144.148 61.7344 144.914C61.9531 145.664 62.2812 146.336 62.7188 146.93C63.1719 147.508 63.7266 147.977 64.3828 148.336C65.0547 148.695 65.8281 148.875 66.7031 148.875C67.2969 148.875 67.9062 148.797 68.5312 148.641C69.1719 148.484 69.7188 148.219 70.1719 147.844L70.2656 146.016L64.6406 145.922L64.9219 138.891C67.25 138.812 69.5781 138.75 71.9062 138.703C74.2344 138.641 76.5781 138.562 78.9375 138.469L79.2188 154.219ZM109.453 127.266L96.5625 145.266L95.9531 159.938H84.8438L85.125 145.359L78.4219 127.969L90.375 126.469L92.25 136.594L98.2031 126.469L109.453 127.266ZM144.727 124.828L142.57 159.234L131.883 159.703L131.977 141.562L127.148 156.188H123.023L119.32 143.109L119.273 158.297L108.445 158.625L108.914 126.234L120.961 125.766L125.742 141.281L132.117 124.828H144.727Z" fill="white"/>
</g>
<g filter="url(#filter5_i_54_151)">
<path d="M84.6445 95.918C84.6055 96.5299 84.5697 97.1354 84.5371 97.7344C84.5046 98.3333 84.4622 98.9388 84.4102 99.5508L80.2695 99.7656L80.1719 100.996H83.082L82.8672 104.023L79.9375 104.121L79.8398 105.547H82.2617H83.9805C83.9414 106.263 83.8991 106.976 83.8535 107.686C83.8145 108.389 83.7786 109.095 83.7461 109.805L75.3281 110L75.6406 95.918H84.6445ZM117.799 95.9961L117.096 109.238L111.979 109.707L109.244 102.617L108.814 109.844H104.42L104.771 95.9961L109.654 95.7617L113.033 102.793L113.189 96.1523L117.799 95.9961Z" fill="white"/>
</g>
<g filter="url(#filter6_i_54_151)">
<path d="M99.4844 62H127.541V90.5H68V66.3164L99.4844 62Z" fill="url(#paint4_linear_54_151)"/>
</g>
<g filter="url(#filter7_i_54_151)">
<path d="M128.557 22.8516L99.4844 62.0801L68 91V66.3965L101.135 23.2324L128.557 0V22.8516Z" fill="url(#paint5_linear_54_151)"/>
</g>
<g filter="url(#filter8_i_54_151)">
<path d="M128.5 23L101.596 23.2324L71.2539 25.5176L71 0H128.5V23Z" fill="url(#paint6_linear_54_151)" fill-opacity="0.97"/>
</g>
<path d="M102.473 113.77C101.856 113.104 101.047 112.236 100.34 111.487C98.966 110.04 97.2869 108.958 97.2869 108.958L94.4941 111.955C94.4941 111.955 95.58 113.954 96.9642 115.144C97.6407 115.726 98.4872 116.32 99.1776 116.778C99.0735 117.121 98.9694 117.569 98.9243 118.103C98.7925 119.761 99.0492 121.947 99.0596 122.19C99.1013 123.459 99.1151 124.399 99.1151 124.399L101.315 124.393L103.146 116.268C103.348 115.376 103.098 114.439 102.473 113.77Z" fill="url(#paint7_linear_54_151)"/>
<path d="M91.3852 108.958C91.3852 108.958 89.7061 110.04 88.3357 111.491C87.628 112.24 86.8197 113.107 86.2022 113.773C85.5777 114.443 85.3279 115.38 85.5291 116.271L87.3609 124.396L89.5604 124.403C89.5604 124.403 89.5742 123.463 89.6159 122.193C89.6228 121.95 89.883 119.765 89.7512 118.106C89.7095 117.572 89.602 117.125 89.4979 116.781C90.1883 116.323 91.0348 115.73 91.7113 115.147C93.0955 113.957 94.1814 111.959 94.1814 111.959L91.3852 108.958Z" fill="url(#paint8_linear_54_151)"/>
<path d="M86.8066 122.189L87.3652 124.392L89.5647 124.399L89.6132 122.189H86.8066Z" fill="#E0E0E0"/>
<path d="M89.9965 125.422C89.9931 124.756 89.4206 124 89.4206 124H86.732L84.6574 124.732C84.1232 124.944 83.7693 125.457 83.7693 126.033V126.782C83.7693 126.977 83.9813 127.156 84.1755 127.156L89.5 126.5C89.722 126.5 90 126.225 90 126L89.9965 125.422Z" fill="#4568AD"/>
<path d="M99.0596 122.189L99.1185 124.399L101.315 124.392L101.87 122.189H99.0596Z" fill="#E0E0E0"/>
<path d="M103.695 124.576L101.623 123.844H98.9348C98.9348 123.844 98.3589 124.601 98.3589 125.27L98.3555 126.255C98.3555 126.477 98.778 126.497 99 126.5L103.695 126.712C103.889 126.712 104.5 126.712 104.583 126.28V125.777C104.5 125 104.229 124.788 103.695 124.576Z" fill="#4568AD"/>
<path d="M98.1054 97.9188C97.9701 97.676 98.1435 97.4262 98.4315 97.1209C98.8929 96.6352 99.3959 95.5042 98.931 94.3559C98.9345 94.349 98.8408 94.1547 98.8408 94.1512L98.6465 94.1408C98.5841 94.1304 96.4714 94.127 94.3586 94.127C92.2459 94.127 90.1331 94.1304 90.0707 94.1408C90.0707 94.1408 89.7862 94.349 89.7897 94.3559C89.3213 95.5042 89.8243 96.6317 90.2892 97.1209C90.5806 97.4262 90.7506 97.676 90.6153 97.9188C90.487 98.1547 90.0984 98.1894 90.0984 98.1894C90.0984 98.1894 90.1886 98.4322 90.4037 98.5641C90.6014 98.6855 90.8478 98.7132 91.0143 98.7167C91.0143 98.7167 91.6734 99.6291 93.3976 99.6291H94.3586H95.3196C97.0438 99.6291 97.7029 98.7167 97.7029 98.7167C97.8729 98.7132 98.1158 98.6855 98.3135 98.5641C98.5286 98.4322 98.6188 98.1894 98.6188 98.1894C98.6188 98.1894 98.2337 98.1582 98.1054 97.9188Z" fill="#543930"/>
<path d="M94.3584 99.6289V98.6159L97.4252 98.373L97.7027 98.7165C97.7027 98.7165 97.0436 99.6289 95.3194 99.6289H94.3584Z" fill="url(#paint9_radial_54_151)"/>
<path d="M97.6957 98.2763C97.2378 97.579 98.2542 97.3188 98.2542 97.3188C98.0773 97.5374 97.9975 97.7317 98.1016 97.919C98.23 98.1549 98.6185 98.1896 98.6185 98.1896C98.6185 98.1896 98.0912 98.658 97.6957 98.2763Z" fill="url(#paint10_radial_54_151)"/>
<path d="M98.9313 94.3597C99.3858 95.4698 98.907 96.6147 98.4595 97.0969C98.3971 97.1628 98.1369 97.4195 98.0779 97.6242C98.0779 97.6242 97.0545 96.1949 96.7492 95.3588C96.6867 95.1888 96.6312 95.0154 96.6243 94.835C96.6174 94.6997 96.6382 94.5401 96.718 94.4256C96.8151 94.2834 98.8827 94.2452 98.8827 94.2452C98.8793 94.2417 98.9313 94.3597 98.9313 94.3597Z" fill="url(#paint11_radial_54_151)"/>
<path d="M89.7899 94.3597C89.3355 95.4698 89.8142 96.6146 90.2618 97.0969C90.3242 97.1628 90.5844 97.4195 90.6434 97.6242C90.6434 97.6242 91.6668 96.1949 91.9721 95.3588C92.0345 95.1888 92.09 95.0153 92.097 94.8349C92.1039 94.6996 92.0831 94.5401 92.0033 94.4256C91.9062 94.2833 91.7951 94.3215 91.6356 94.3215C91.3268 94.3215 89.9738 94.2417 89.8697 94.2417C89.8732 94.2417 89.7899 94.3597 89.7899 94.3597Z" fill="url(#paint12_radial_54_151)"/>
<path d="M94.3619 99.6289V98.6159L91.2951 98.373L91.0176 98.7165C91.0176 98.7165 91.6767 99.6289 93.4009 99.6289H94.3619Z" fill="url(#paint13_radial_54_151)"/>
<path d="M91.0283 98.2763C91.4897 97.579 90.4697 97.3188 90.4697 97.3188C90.6467 97.5374 90.7265 97.7317 90.6224 97.919C90.494 98.1549 90.1055 98.1896 90.1055 98.1896C90.1055 98.1896 90.6293 98.658 91.0283 98.2763Z" fill="url(#paint14_radial_54_151)"/>
<path d="M105.529 91.6778L103.954 90.8833C102.695 92.1183 102.098 93.1764 101.536 95.0186C100.346 95.5841 99.3196 96.6214 98.6535 97.6934C97.9458 98.6682 97.5017 99.2094 96.9917 100.177C96.6066 100.913 96.8842 101.732 97.5815 102.241C97.9111 102.484 98.1782 102.588 98.4384 102.588C98.7298 102.588 99.0073 102.453 99.3473 102.224C100.065 101.815 101.04 100.732 101.665 99.9275L101.647 99.9171C102.442 98.9284 103.243 97.5338 103.642 96.2155C104.759 95.0498 105.529 93.5199 105.529 91.6778Z" fill="url(#paint15_linear_54_151)"/>
<path d="M91.6842 100.181C91.1742 99.2129 90.7302 98.6717 90.0225 97.6968C89.3564 96.6248 88.3295 95.5876 87.1395 95.0221C86.5741 93.173 85.9774 92.1183 84.718 90.8833L83.1465 91.6812C83.1465 93.5234 83.9166 95.0498 85.0337 96.2189C85.4327 97.5338 86.2306 98.9319 87.0285 99.9206L87.0112 99.931C87.6356 100.736 88.6105 101.818 89.3286 102.228C89.6686 102.457 89.9461 102.592 90.2376 102.592C90.4977 102.592 90.7649 102.484 91.0944 102.245C91.7883 101.735 92.0693 100.913 91.6842 100.181Z" fill="url(#paint16_linear_54_151)"/>
<path d="M98.6534 97.6934C98.0324 98.5468 97.6161 99.0707 97.179 99.8374C96.7523 99.7264 96.2701 99.6639 95.7358 99.6639H92.9015C92.3776 99.6639 91.9093 99.7264 91.493 99.8339C91.0558 99.0672 90.6395 98.5434 90.0185 97.6899L87.0107 99.9276C87.6352 100.732 88.9813 102.224 88.9813 102.224C89.2692 103.633 90.9275 109.232 90.9275 109.232H97.9596L99.7532 102.196C99.7532 102.196 101.054 100.712 101.665 99.9311L98.6534 97.6934Z" fill="url(#paint17_linear_54_151)"/>
<path d="M93.1348 99.9065C93.1348 100.482 93.6239 100.951 94.2276 100.951H94.4461C95.0498 100.951 95.5389 100.482 95.5389 99.9065V98.6333H93.1348V99.9065Z" fill="#FFB84E"/>
<path d="M91.4031 97.0481C90.8654 97.0481 90.4248 96.5763 90.4248 95.997C90.4248 95.4176 90.8619 94.9458 91.4031 94.9458H97.273C97.8108 94.9458 98.2513 95.4176 98.2513 95.997C98.2513 96.5763 97.8142 97.0481 97.273 97.0481H91.4031Z" fill="#E59600"/>
<path d="M94.338 90.5781C92.4785 90.5781 90.7578 92.566 90.7578 95.4246C90.7578 98.2694 92.5306 99.6744 94.338 99.6744C96.1455 99.6744 97.9183 98.2694 97.9183 95.4246C97.9183 92.566 96.1975 90.5781 94.338 90.5781Z" fill="#FFCA28"/>
<path d="M94.751 96.6628C94.7405 96.6593 94.7267 96.6558 94.7163 96.6523H93.9565C93.9461 96.6523 93.9322 96.6558 93.9218 96.6628C93.8524 96.6905 93.8143 96.7634 93.849 96.8397C93.8802 96.916 94.0328 97.1276 94.3381 97.1276C94.6434 97.1276 94.7926 96.916 94.8273 96.8397C94.8585 96.7634 94.8203 96.6905 94.751 96.6628Z" fill="#E59600"/>
<path d="M95.2405 97.5236C94.8971 97.7283 93.7765 97.7283 93.4366 97.5236C93.2388 97.4056 93.0376 97.586 93.1209 97.763C93.2007 97.9399 93.8147 98.3458 94.342 98.3458C94.8693 98.3458 95.4765 97.9399 95.5562 97.763C95.636 97.586 95.4383 97.4056 95.2405 97.5236Z" fill="#CD9B8C"/>
<path d="M92.5966 96.2084C92.884 96.2084 93.1169 95.9661 93.1169 95.6672C93.1169 95.3683 92.884 95.126 92.5966 95.126C92.3092 95.126 92.0762 95.3683 92.0762 95.6672C92.0762 95.9661 92.3092 96.2084 92.5966 96.2084Z" fill="#404040"/>
<path d="M96.079 96.2084C96.3664 96.2084 96.5994 95.9661 96.5994 95.6672C96.5994 95.3683 96.3664 95.126 96.079 95.126C95.7916 95.126 95.5586 95.3683 95.5586 95.6672C95.5586 95.9661 95.7916 96.2084 96.079 96.2084Z" fill="#404040"/>
<path d="M93.3704 94.6962C93.2698 94.5643 93.0408 94.3735 92.5968 94.3735C92.1492 94.3735 91.9203 94.5643 91.8231 94.6962C91.778 94.7551 91.7919 94.8211 91.8197 94.8627C91.8474 94.9009 91.9307 94.9355 92.0244 94.9043C92.118 94.8731 92.2949 94.7794 92.5968 94.776C92.8986 94.7794 93.079 94.8696 93.1692 94.9043C93.2629 94.9355 93.3461 94.9009 93.3739 94.8627C93.4051 94.8211 93.4155 94.7551 93.3704 94.6962Z" fill="black"/>
<path d="M96.8528 94.6962C96.7522 94.5643 96.5233 94.3735 96.0792 94.3735C95.6317 94.3735 95.4027 94.5643 95.3056 94.6962C95.2605 94.7551 95.2743 94.8211 95.3021 94.8627C95.3298 94.9009 95.4131 94.9355 95.5068 94.9043C95.6004 94.8731 95.7774 94.7794 96.0792 94.776C96.381 94.7794 96.5614 94.8696 96.6516 94.9043C96.7453 94.9355 96.8285 94.9009 96.8563 94.8627C96.8875 94.8211 96.8979 94.7551 96.8528 94.6962Z" fill="black"/>
<path d="M98.2369 92C97.9767 91.6045 97.6191 91.7993 97.0953 91.7646C97.012 91.2581 97.4029 90.3145 96 90C94.5811 89.549 93.7928 90.0439 93.2933 90.3145C93.1892 90.37 92.5231 90.7412 92.0582 90.4741C91.7668 90.3076 91.7703 89.86 91.7703 89.86C91.7703 89.86 90.8544 90.2069 91.1666 91.1783C90.8544 91.1922 90.4416 91.324 90.223 91.7646C89.9628 92.2885 90.0565 92.7291 90.1293 92.9407C89.8587 93.1697 89.5188 93.6588 89.7512 94.2937C89.9281 94.7724 90.6289 94.991 90.6289 94.991C90.5803 95.8514 90.7399 96.3787 90.8232 96.5938C90.8371 96.6319 90.8926 96.6285 90.8995 96.5903C91.007 96.1636 91.3678 94.6822 91.3332 94.422C91.3332 94.422 92.5508 94.1792 93.7096 93.3258C93.9455 93.1523 94.2022 93.0031 94.4728 92.8956C95.9299 92.3162 96.2351 93.305 96.2351 93.305C96.2351 93.305 97.2447 93.1107 97.55 94.5157C97.6645 95.043 97.7443 95.8826 97.8067 96.4723C97.8102 96.514 97.8691 96.5244 97.883 96.4828C97.9836 96.2503 98.1883 95.7854 98.2369 95.3136C98.2542 95.1471 98.7018 94.9285 98.896 94.2139C99.3949 92.3789 98.4242 92.2845 98.2369 92Z" fill="#040100"/>
<path d="M98.2476 95.3065C98.2649 95.14 98.7125 94.9214 98.9067 94.2068C98.9276 94.1304 98.9449 94.0541 98.9588 93.9743C99.1149 93.107 98.8339 92.3091 98.6604 92.0454C98.4176 91.6777 97.8972 91.199 97.4046 91.0983C97.3629 91.0914 97.3213 91.0879 97.2797 91.0845C97.2797 91.0845 97.3144 91.3134 97.2207 91.4973C97.0993 91.7367 96.8564 91.7922 96.8564 91.7922C98.1401 93.0827 98.0499 94.1582 98.2476 95.3065Z" fill="url(#paint18_radial_54_151)"/>
<path d="M93.6062 90.1479C93.4883 90.2034 93.3842 90.2623 93.294 90.3109C93.1899 90.3664 92.5238 90.7376 92.0589 90.4705C91.771 90.3074 91.771 89.8703 91.771 89.8564C91.6392 90.0264 91.2402 91.2268 92.4059 91.3066C92.9089 91.3413 93.2211 90.9007 93.405 90.5295C93.4709 90.3976 93.5785 90.1999 93.6062 90.1479Z" fill="url(#paint19_radial_54_151)"/>
<path d="M95.9856 89.9394C96.7696 90.1511 97.1547 90.55 97.2831 91.0843C97.3212 91.2404 97.3663 92.7009 94.5771 91.0426C93.5398 90.4251 93.8243 90.0366 93.9457 89.9949C94.4175 89.825 95.1079 89.7035 95.9856 89.9394Z" fill="url(#paint20_radial_54_151)"/>
<path d="M91.7673 89.8565C91.7638 89.8565 91.7638 89.8565 91.7603 89.86C91.6597 89.9016 90.8757 90.2659 91.1671 91.1748L92.0032 91.3101C91.2677 90.5608 91.7707 89.8531 91.7673 89.8565C91.7707 89.8565 91.7707 89.8531 91.7673 89.8565Z" fill="url(#paint21_radial_54_151)"/>
<path d="M91.6877 91.2581L91.1708 91.1748C91.15 91.1748 91.0806 91.1817 91.0459 91.1852C90.7545 91.2268 90.4145 91.376 90.2272 91.7611C90.0295 92.1739 90.0329 92.5313 90.0884 92.7672C90.1023 92.847 90.137 92.9372 90.137 92.9372C90.137 92.9372 90.3937 92.6943 91.0008 92.6804L91.6877 91.2581Z" fill="url(#paint22_radial_54_151)"/>
<path d="M90.109 92.9578C89.8558 93.1833 89.5123 93.6863 89.7656 94.3108C89.9564 94.7826 90.6329 94.9873 90.6329 94.9873C90.6329 94.9907 90.7682 95.0289 90.8375 95.0289L90.9971 92.6768C90.671 92.6768 90.3588 92.7739 90.1576 92.9127C90.161 92.9196 90.109 92.9543 90.109 92.9578Z" fill="url(#paint23_radial_54_151)"/>
<path d="M86.1021 89.6102C85.7898 89.4263 84.3085 89.1938 83.2851 89.1938C82.7231 89.1938 82.3033 89.2667 82.3033 89.4575L82.2998 90.6474C82.2963 91.8443 83.0769 92.8226 84.3675 92.8261H84.3709C86.7092 92.8261 86.8931 90.0716 86.1021 89.6102Z" fill="url(#paint24_radial_54_151)"/>
<path d="M86.0183 90.8796C86.0045 90.9247 85.883 90.9698 85.7512 91.0045H85.7477C85.5951 91.0426 85.4147 91.1189 85.0782 91.2126C84.6098 91.3444 84.5717 91.9724 84.5717 91.9724C84.4849 91.6463 84.707 91.0738 85.0157 90.942V90.9385C85.1614 90.8692 85.3245 90.831 85.498 90.8032C85.5257 90.7998 85.5951 90.7963 85.6818 90.7998H85.6853C85.8414 90.8032 86.0357 90.8241 86.0183 90.8796Z" fill="#EDA600"/>
<path d="M85.5299 90.9421H82.2932L82.0156 89.2075H85.5299V90.9421Z" fill="#646464"/>
<path d="M86.4351 88.8746L86.3345 89.4123L86.3137 89.5303L86.2651 89.7905L86.2374 89.9431C86.1784 90.2554 85.9043 90.4739 85.599 90.4739C85.5609 90.4739 85.5192 90.4705 85.4811 90.4635C85.3215 90.4358 85.1862 90.3525 85.0925 90.2276C84.978 90.3317 84.8289 90.3907 84.6658 90.3907C84.5687 90.3907 84.2634 90.2554 84.2113 90.2033C84.1975 90.1894 84.1836 90.1756 84.1732 90.1582C84.1593 90.1686 84.1454 90.1825 84.1315 90.1929C84.1246 90.1964 83.9269 90.3143 83.7256 90.3109C83.5383 90.3074 83.351 90.1929 83.2955 90.1374C83.24 90.2172 83.1636 90.2866 83.0734 90.3352C83.011 90.3733 82.9416 90.3976 82.8653 90.408C82.8306 90.4149 82.7959 90.4184 82.7612 90.4184C82.6224 90.4184 82.4871 90.3733 82.3761 90.2901C82.2304 90.186 82.1367 90.0333 82.1125 89.8599L82.0674 89.565V89.5615L82.0084 89.1834C81.9806 89.0099 82.0223 88.8365 82.1263 88.6942C82.2304 88.5485 82.3831 88.4548 82.5565 88.4306C82.5981 88.4236 82.6398 88.4201 82.6814 88.4236C82.6918 88.4236 82.7057 88.4236 82.7161 88.4271C82.8271 88.434 82.9381 88.4722 83.0353 88.5416C83.0491 88.552 83.0596 88.5624 83.07 88.5693C83.0908 88.4895 83.1324 88.4132 83.1844 88.3508C83.1983 88.3299 83.2122 88.3126 83.2295 88.2953C83.2504 88.271 83.2677 88.2606 83.2746 88.2536C83.2781 88.2536 83.2781 88.2502 83.2781 88.2502C83.3822 88.16 83.5175 88.1044 83.6667 88.0975C83.7152 88.094 83.7638 88.0975 83.8089 88.1044C83.8436 88.1114 83.8748 88.1218 83.906 88.1322C83.9962 88.16 84.076 88.2051 84.1454 88.2675C84.1662 88.2397 84.1905 88.212 84.2148 88.1877C84.2495 88.153 84.2877 88.1218 84.3258 88.0975C84.3466 88.0836 84.3709 88.0732 84.3917 88.0593C84.4785 88.0177 84.5756 87.9969 84.6762 88.0004C84.7872 88.0004 84.8948 88.0281 84.9919 88.0836C85.0093 88.0906 85.0231 88.101 85.037 88.1114C85.0717 88.1357 85.1029 88.1634 85.1341 88.1946C85.1896 88.2502 85.2347 88.3161 85.266 88.3855C85.3076 88.323 85.3631 88.264 85.429 88.2189C85.4429 88.2085 85.4602 88.1981 85.4776 88.1912C85.547 88.153 85.6198 88.1253 85.6962 88.1149C85.769 88.1044 85.8419 88.1044 85.9147 88.1183C86.0882 88.1495 86.2339 88.2467 86.3345 88.3889C86.4316 88.5346 86.4663 88.7046 86.4351 88.8746Z" fill="url(#paint25_linear_54_151)"/>
<path d="M98.3105 109.371L98.0677 108.691H90.7927L90.6609 109.385C90.6609 109.385 87 112 87 113C87 114 90.5005 115.747 91.0005 115.747C91.5005 115.747 93.3773 113.78 93.5889 113.593C93.8213 113.385 94.1023 113.36 94.2723 113.357C94.4423 113.36 94.7233 113.385 94.9558 113.593C95.1674 113.784 97.3196 115.747 97.7492 115.747C98.1788 115.747 101.5 114 101.5 113C101.5 112 98.3105 109.371 98.3105 109.371Z" fill="#7C7C7C"/>
<path d="M86.3697 89.2492C86.2483 89.5614 85.5892 89.263 85.3394 89.1347C85.3012 88.8294 85.2631 88.6282 85.2631 88.6282C85.2631 88.6282 85.2631 88.6282 85.2631 88.6317C85.2735 88.8051 85.1 88.93 84.937 88.8676C84.7531 88.7947 84.5415 88.7357 84.3888 88.7427C84.3298 88.7461 84.2813 88.7565 84.2362 88.7704C84.1945 88.6351 84.1703 88.5449 84.1703 88.5449C84.1703 88.5449 84.1703 88.5588 84.1703 88.5831C84.1633 88.701 84.1078 88.8121 84.0107 88.878C83.6325 89.1243 83.5354 89.5892 83.9829 90.0853C83.8303 90.1893 83.5909 90.1824 83.4556 90.0436C83.2821 89.8702 83.2093 89.3186 83.1087 88.9092C83.1399 89.2006 83.2266 89.721 83.185 89.9222C83.133 90.165 82.8901 90.3177 82.6473 90.2587C82.4357 90.2067 82.1859 90.0367 82.0645 89.5683L82.1096 89.8632C82.1338 90.0367 82.2275 90.1893 82.3732 90.2934C82.4842 90.3767 82.6195 90.4218 82.7583 90.4218C82.793 90.4218 82.8277 90.4183 82.8624 90.4114C82.9283 90.4009 82.9873 90.3801 83.0428 90.3524C83.0462 90.3489 83.0532 90.3489 83.0566 90.3454C83.0601 90.342 83.0671 90.342 83.0705 90.3385C83.2162 90.2587 83.2891 90.1477 83.2926 90.1408C83.3099 90.1685 83.4903 90.3177 83.7089 90.3177C84.0107 90.3177 84.1286 90.1963 84.1286 90.1963C84.1564 90.2136 84.1841 90.2275 84.2119 90.2379C84.2327 90.2448 85.0445 90.5189 85.0133 90.8277C85.0098 90.8658 85.0133 90.904 85.0168 90.9421V90.956V90.9595C85.0272 91.0497 85.048 91.1364 85.0792 91.2162L85.0827 91.2127C85.1659 91.1468 85.3671 91.2023 85.3845 91.0844C85.4504 90.6369 85.4331 90.1026 85.3914 89.6447L86.2657 89.7904L86.3697 89.2492Z" fill="#EDA600"/>
<path d="M86.5357 90.3801C86.3657 89.4469 85.2382 89.0583 84.8149 88.9091C84.7629 88.8918 83.9893 88.7079 83.8956 89.3948C83.854 89.6932 84.0795 90.0193 84.3674 90.1303C85.1549 90.4321 85.1514 90.5986 85.1514 90.7097C85.148 90.9976 85.3076 91.5423 85.5573 91.7053C85.6094 91.74 85.6684 91.7608 85.7239 91.7608C85.7586 91.7608 85.7933 91.7539 85.8279 91.74C86.3171 91.5353 86.6328 90.9247 86.5357 90.3801Z" fill="url(#paint26_linear_54_151)"/>
<path d="M102.615 89.6102C102.928 89.4263 104.409 89.1938 105.432 89.1938C105.994 89.1938 106.414 89.2667 106.414 89.4575L106.418 90.6474C106.421 91.8443 105.64 92.8226 104.35 92.8261H104.346C102.008 92.8261 101.821 90.0716 102.615 89.6102Z" fill="url(#paint27_radial_54_151)"/>
<path d="M102.698 90.8796C102.712 90.9247 102.834 90.9698 102.965 91.0045H102.969C103.122 91.0426 103.302 91.1189 103.639 91.2126C104.107 91.3444 104.145 91.9724 104.145 91.9724C104.232 91.6463 104.01 91.0738 103.701 90.942V90.9385C103.555 90.8692 103.392 90.831 103.219 90.8032C103.191 90.7998 103.122 90.7963 103.035 90.7998H103.031C102.875 90.8032 102.681 90.8241 102.698 90.8796Z" fill="#EDA600"/>
<path d="M103.188 89.2075H106.702L106.424 90.9421H103.188V89.2075Z" fill="#646464"/>
<path d="M102.283 88.8746L102.383 89.4123L102.404 89.5303L102.453 89.7905L102.48 89.9431C102.539 90.2554 102.813 90.4739 103.119 90.4739C103.157 90.4739 103.198 90.4705 103.237 90.4635C103.396 90.4358 103.532 90.3525 103.625 90.2276C103.74 90.3317 103.889 90.3907 104.052 90.3907C104.149 90.3907 104.454 90.2554 104.506 90.2033C104.52 90.1894 104.534 90.1756 104.545 90.1582C104.558 90.1686 104.572 90.1825 104.586 90.1929C104.593 90.1964 104.791 90.3143 104.992 90.3109C105.179 90.3074 105.363 90.1929 105.422 90.1374C105.478 90.2172 105.554 90.2866 105.644 90.3352C105.707 90.3733 105.776 90.3976 105.852 90.408C105.887 90.4149 105.922 90.4184 105.957 90.4184C106.095 90.4184 106.231 90.3733 106.342 90.2901C106.487 90.186 106.581 90.0333 106.605 89.8599L106.65 89.565V89.5615L106.709 89.1834C106.737 89.0099 106.695 88.8365 106.591 88.6942C106.487 88.5485 106.335 88.4548 106.161 88.4306C106.12 88.4236 106.078 88.4201 106.036 88.4236C106.026 88.4236 106.012 88.4236 106.002 88.4271C105.891 88.434 105.78 88.4722 105.682 88.5416C105.669 88.552 105.658 88.5624 105.648 88.5693C105.627 88.4895 105.585 88.4132 105.533 88.3508C105.519 88.3299 105.506 88.3126 105.488 88.2953C105.467 88.271 105.45 88.2606 105.443 88.2536C105.44 88.2536 105.44 88.2502 105.44 88.2502C105.336 88.16 105.2 88.1044 105.051 88.0975C105.002 88.094 104.954 88.0975 104.909 88.1044C104.874 88.1114 104.843 88.1218 104.812 88.1322C104.721 88.16 104.642 88.2051 104.572 88.2675C104.551 88.2397 104.527 88.212 104.503 88.1877C104.468 88.153 104.43 88.1218 104.392 88.0975C104.371 88.0836 104.347 88.0732 104.326 88.0593C104.239 88.0177 104.142 87.9969 104.042 88.0004C103.93 88.0004 103.823 88.0281 103.726 88.0836C103.708 88.0906 103.695 88.101 103.681 88.1114C103.646 88.1357 103.615 88.1634 103.584 88.1946C103.528 88.2502 103.483 88.3161 103.452 88.3855C103.41 88.323 103.355 88.264 103.289 88.2189C103.275 88.2085 103.257 88.1981 103.24 88.1912C103.171 88.153 103.098 88.1253 103.022 88.1149C102.949 88.1044 102.876 88.1044 102.803 88.1183C102.63 88.1495 102.484 88.2467 102.383 88.3889C102.286 88.5346 102.251 88.7046 102.283 88.8746Z" fill="url(#paint28_linear_54_151)"/>
<path d="M102.349 89.2492C102.47 89.5614 103.129 89.263 103.379 89.1347C103.417 88.8294 103.455 88.6282 103.455 88.6282C103.455 88.6282 103.455 88.6282 103.455 88.6317C103.445 88.8051 103.618 88.93 103.781 88.8676C103.965 88.7947 104.177 88.7357 104.33 88.7427C104.389 88.7461 104.437 88.7565 104.482 88.7704C104.524 88.6351 104.548 88.5449 104.548 88.5449C104.548 88.5449 104.548 88.5588 104.548 88.5831C104.555 88.701 104.611 88.8121 104.708 88.878C105.086 89.1243 105.183 89.5892 104.735 90.0853C104.888 90.1893 105.127 90.1824 105.263 90.0436C105.436 89.8702 105.509 89.3186 105.61 88.9092C105.578 89.2006 105.492 89.721 105.533 89.9222C105.582 90.165 105.828 90.3177 106.071 90.2587C106.283 90.2067 106.533 90.0367 106.654 89.5683L106.609 89.8632C106.585 90.0367 106.491 90.1893 106.345 90.2934C106.234 90.3767 106.099 90.4218 105.96 90.4218C105.925 90.4218 105.891 90.4183 105.856 90.4114C105.79 90.4009 105.731 90.3801 105.676 90.3524C105.672 90.3489 105.665 90.3489 105.662 90.3454C105.658 90.342 105.651 90.342 105.648 90.3385C105.502 90.2587 105.429 90.1477 105.426 90.1408C105.408 90.1685 105.228 90.3177 105.01 90.3177C104.708 90.3177 104.59 90.1963 104.59 90.1963C104.562 90.2136 104.534 90.2275 104.506 90.2379C104.482 90.2448 103.677 90.5189 103.705 90.8277C103.709 90.8658 103.705 90.904 103.702 90.9421V90.956V90.9595C103.691 91.0497 103.67 91.1364 103.639 91.2162L103.636 91.2127C103.552 91.1468 103.351 91.2023 103.334 91.0844C103.268 90.6369 103.285 90.1026 103.327 89.6447L102.453 89.7904L102.349 89.2492Z" fill="#EDA600"/>
<path d="M102.182 90.3801C102.352 89.4469 103.479 89.0583 103.902 88.9091C103.954 88.8918 104.728 88.7079 104.822 89.3948C104.863 89.6932 104.638 90.0193 104.35 90.1303C103.562 90.4321 103.566 90.5986 103.566 90.7097C103.569 90.9976 103.41 91.5423 103.16 91.7053C103.108 91.74 103.049 91.7608 102.993 91.7608C102.959 91.7608 102.924 91.7539 102.889 91.74C102.4 91.5353 102.084 90.9247 102.182 90.3801Z" fill="url(#paint29_linear_54_151)"/>
<defs>
<filter id="filter0_i_54_151" x="122.162" y="40.7612" width="24.1084" height="70.999" filterUnits="userSpaceOnUse" color-interpolation-filters="sRGB">
<feFlood flood-opacity="0" result="BackgroundImageFix"/>
<feBlend mode="normal" in="SourceGraphic" in2="BackgroundImageFix" result="shape"/>
<feColorMatrix in="SourceAlpha" type="matrix" values="0 0 0 0 0 0 0 0 0 0 0 0 0 0 0 0 0 0 127 0" result="hardAlpha"/>
<feOffset dx="-6" dy="-6"/>
<feGaussianBlur stdDeviation="3"/>
<feComposite in2="hardAlpha" operator="arithmetic" k2="-1" k3="1"/>
<feColorMatrix type="matrix" values="0 0 0 0 0 0 0 0 0 0 0 0 0 0 0 0 0 0 0.33 0"/>
<feBlend mode="normal" in2="shape" result="effect1_innerShadow_54_151"/>
</filter>
<filter id="filter1_i_54_151" x="141.162" y="40.7612" width="24.1084" height="70.999" filterUnits="userSpaceOnUse" color-interpolation-filters="sRGB">
<feFlood flood-opacity="0" result="BackgroundImageFix"/>
<feBlend mode="normal" in="SourceGraphic" in2="BackgroundImageFix" result="shape"/>
<feColorMatrix in="SourceAlpha" type="matrix" values="0 0 0 0 0 0 0 0 0 0 0 0 0 0 0 0 0 0 127 0" result="hardAlpha"/>
<feOffset dx="-6" dy="-6"/>
<feGaussianBlur stdDeviation="3"/>
<feComposite in2="hardAlpha" operator="arithmetic" k2="-1" k3="1"/>
<feColorMatrix type="matrix" values="0 0 0 0 0 0 0 0 0 0 0 0 0 0 0 0 0 0 0.33 0"/>
<feBlend mode="normal" in2="shape" result="effect1_innerShadow_54_151"/>
</filter>
<filter id="filter2_i_54_151" x="41.1621" y="40.7612" width="24.1084" height="70.999" filterUnits="userSpaceOnUse" color-interpolation-filters="sRGB">
<feFlood flood-opacity="0" result="BackgroundImageFix"/>
<feBlend mode="normal" in="SourceGraphic" in2="BackgroundImageFix" result="shape"/>
<feColorMatrix in="SourceAlpha" type="matrix" values="0 0 0 0 0 0 0 0 0 0 0 0 0 0 0 0 0 0 127 0" result="hardAlpha"/>
<feOffset dx="-6" dy="-6"/>
<feGaussianBlur stdDeviation="3"/>
<feComposite in2="hardAlpha" operator="arithmetic" k2="-1" k3="1"/>
<feColorMatrix type="matrix" values="0 0 0 0 0 0 0 0 0 0 0 0 0 0 0 0 0 0 0.33 0"/>
<feBlend mode="normal" in2="shape" result="effect1_innerShadow_54_151"/>
</filter>
<filter id="filter3_i_54_151" x="22.1621" y="40.7612" width="24.1084" height="70.999" filterUnits="userSpaceOnUse" color-interpolation-filters="sRGB">
<feFlood flood-opacity="0" result="BackgroundImageFix"/>
<feBlend mode="normal" in="SourceGraphic" in2="BackgroundImageFix" result="shape"/>
<feColorMatrix in="SourceAlpha" type="matrix" values="0 0 0 0 0 0 0 0 0 0 0 0 0 0 0 0 0 0 127 0" result="hardAlpha"/>
<feOffset dx="-6" dy="-6"/>
<feGaussianBlur stdDeviation="3"/>
<feComposite in2="hardAlpha" operator="arithmetic" k2="-1" k3="1"/>
<feColorMatrix type="matrix" values="0 0 0 0 0 0 0 0 0 0 0 0 0 0 0 0 0 0 0.33 0"/>
<feBlend mode="normal" in2="shape" result="effect1_innerShadow_54_151"/>
</filter>
<filter id="filter4_i_54_151" x="49.9219" y="121.312" width="96.8047" height="38.625" filterUnits="userSpaceOnUse" color-interpolation-filters="sRGB">
<feFlood flood-opacity="0" result="BackgroundImageFix"/>
<feBlend mode="normal" in="SourceGraphic" in2="BackgroundImageFix" result="shape"/>
<feColorMatrix in="SourceAlpha" type="matrix" values="0 0 0 0 0 0 0 0 0 0 0 0 0 0 0 0 0 0 127 0" result="hardAlpha"/>
<feOffset dx="2" dy="-3"/>
<feGaussianBlur stdDeviation="2"/>
<feComposite in2="hardAlpha" operator="arithmetic" k2="-1" k3="1"/>
<feColorMatrix type="matrix" values="0 0 0 0 0 0 0 0 0 0 0 0 0 0 0 0 0 0 0.25 0"/>
<feBlend mode="normal" in2="shape" result="effect1_innerShadow_54_151"/>
</filter>
<filter id="filter5_i_54_151" x="75.3281" y="92.7617" width="44.4707" height="17.2383" filterUnits="userSpaceOnUse" color-interpolation-filters="sRGB">
<feFlood flood-opacity="0" result="BackgroundImageFix"/>
<feBlend mode="normal" in="SourceGraphic" in2="BackgroundImageFix" result="shape"/>
<feColorMatrix in="SourceAlpha" type="matrix" values="0 0 0 0 0 0 0 0 0 0 0 0 0 0 0 0 0 0 127 0" result="hardAlpha"/>
<feOffset dx="2" dy="-3"/>
<feGaussianBlur stdDeviation="2"/>
<feComposite in2="hardAlpha" operator="arithmetic" k2="-1" k3="1"/>
<feColorMatrix type="matrix" values="0 0 0 0 0 0 0 0 0 0 0 0 0 0 0 0 0 0 0.25 0"/>
<feBlend mode="normal" in2="shape" result="effect1_innerShadow_54_151"/>
</filter>
<filter id="filter6_i_54_151" x="68" y="60" width="60.541" height="30.5" filterUnits="userSpaceOnUse" color-interpolation-filters="sRGB">
<feFlood flood-opacity="0" result="BackgroundImageFix"/>
<feBlend mode="normal" in="SourceGraphic" in2="BackgroundImageFix" result="shape"/>
<feColorMatrix in="SourceAlpha" type="matrix" values="0 0 0 0 0 0 0 0 0 0 0 0 0 0 0 0 0 0 127 0" result="hardAlpha"/>
<feOffset dx="1" dy="-2"/>
<feGaussianBlur stdDeviation="4"/>
<feComposite in2="hardAlpha" operator="arithmetic" k2="-1" k3="1"/>
<feColorMatrix type="matrix" values="0 0 0 0 0 0 0 0 0 0.124967 0 0 0 0 0.271667 0 0 0 0.25 0"/>
<feBlend mode="normal" in2="shape" result="effect1_innerShadow_54_151"/>
</filter>
<filter id="filter7_i_54_151" x="68" y="-2" width="61.5566" height="93" filterUnits="userSpaceOnUse" color-interpolation-filters="sRGB">
<feFlood flood-opacity="0" result="BackgroundImageFix"/>
<feBlend mode="normal" in="SourceGraphic" in2="BackgroundImageFix" result="shape"/>
<feColorMatrix in="SourceAlpha" type="matrix" values="0 0 0 0 0 0 0 0 0 0 0 0 0 0 0 0 0 0 127 0" result="hardAlpha"/>
<feOffset dx="1" dy="-2"/>
<feGaussianBlur stdDeviation="4"/>
<feComposite in2="hardAlpha" operator="arithmetic" k2="-1" k3="1"/>
<feColorMatrix type="matrix" values="0 0 0 0 0 0 0 0 0 0.124967 0 0 0 0 0.271667 0 0 0 0.25 0"/>
<feBlend mode="normal" in2="shape" result="effect1_innerShadow_54_151"/>
</filter>
<filter id="filter8_i_54_151" x="71" y="-2" width="58.5" height="27.5176" filterUnits="userSpaceOnUse" color-interpolation-filters="sRGB">
<feFlood flood-opacity="0" result="BackgroundImageFix"/>
<feBlend mode="normal" in="SourceGraphic" in2="BackgroundImageFix" result="shape"/>
<feColorMatrix in="SourceAlpha" type="matrix" values="0 0 0 0 0 0 0 0 0 0 0 0 0 0 0 0 0 0 127 0" result="hardAlpha"/>
<feOffset dx="1" dy="-2"/>
<feGaussianBlur stdDeviation="4"/>
<feComposite in2="hardAlpha" operator="arithmetic" k2="-1" k3="1"/>
<feColorMatrix type="matrix" values="0 0 0 0 0 0 0 0 0 0.124967 0 0 0 0 0.271667 0 0 0 0.25 0"/>
<feBlend mode="normal" in2="shape" result="effect1_innerShadow_54_151"/>
</filter>
<linearGradient id="paint0_linear_54_151" x1="155.879" y1="59.6637" x2="118.546" y2="98.8625" gradientUnits="userSpaceOnUse">
<stop stop-color="#ADE2FF"/>
<stop offset="1" stop-opacity="0"/>
<stop offset="1" stop-color="#7BE1D5" stop-opacity="0.85"/>
</linearGradient>
<linearGradient id="paint1_linear_54_151" x1="174.879" y1="59.6637" x2="137.546" y2="98.8625" gradientUnits="userSpaceOnUse">
<stop stop-color="#ADE2FF"/>
<stop offset="1" stop-opacity="0"/>
<stop offset="1" stop-color="#7BE1D5" stop-opacity="0.85"/>
</linearGradient>
<linearGradient id="paint2_linear_54_151" x1="74.8794" y1="59.6637" x2="37.5461" y2="98.8625" gradientUnits="userSpaceOnUse">
<stop stop-color="#ADE2FF"/>
<stop offset="1" stop-opacity="0"/>
<stop offset="1" stop-color="#7BE1D5" stop-opacity="0.85"/>
</linearGradient>
<linearGradient id="paint3_linear_54_151" x1="55.8794" y1="59.6637" x2="18.5461" y2="98.8625" gradientUnits="userSpaceOnUse">
<stop stop-color="#ADE2FF"/>
<stop offset="1" stop-opacity="0"/>
<stop offset="1" stop-color="#7BE1D5" stop-opacity="0.85"/>
</linearGradient>
<linearGradient id="paint4_linear_54_151" x1="85" y1="54.5" x2="85" y2="91" gradientUnits="userSpaceOnUse">
<stop stop-color="white"/>
<stop offset="0.0812499" stop-color="#078992"/>
</linearGradient>
<linearGradient id="paint5_linear_54_151" x1="118.413" y1="16.0488" x2="69.5" y2="87.5" gradientUnits="userSpaceOnUse">
<stop offset="0.284375" stop-color="#FFCCA7"/>
<stop offset="0.523958" stop-color="white"/>
<stop offset="1" stop-color="#23CEE6"/>
</linearGradient>
<linearGradient id="paint6_linear_54_151" x1="125.096" y1="16.7295" x2="90.9697" y2="92.2783" gradientUnits="userSpaceOnUse">
<stop stop-color="#E39760"/>
<stop offset="0.346875" stop-color="white"/>
<stop offset="0.951042" stop-color="#63C0CD"/>
</linearGradient>
<linearGradient id="paint7_linear_54_151" x1="98.8543" y1="109.114" x2="98.8543" y2="122.41" gradientUnits="userSpaceOnUse">
<stop stop-color="#FFB300"/>
<stop offset="0.5" stop-color="#FFCA28"/>
</linearGradient>
<linearGradient id="paint8_linear_54_151" x1="89.8211" y1="109.114" x2="89.8211" y2="122.41" gradientUnits="userSpaceOnUse">
<stop stop-color="#FFB300"/>
<stop offset="0.5" stop-color="#FFCA28"/>
</linearGradient>
<radialGradient id="paint9_radial_54_151" cx="0" cy="0" r="1" gradientUnits="userSpaceOnUse" gradientTransform="translate(95.9246 98.1668) scale(2.51244 1.23411)">
<stop offset="0.7275" stop-color="#6D4C41" stop-opacity="0"/>
<stop offset="1" stop-color="#6D4C41"/>
</radialGradient>
<radialGradient id="paint10_radial_54_151" cx="0" cy="0" r="1" gradientUnits="userSpaceOnUse" gradientTransform="translate(98.4006 97.7928) rotate(154.924) scale(0.742442 0.550787)">
<stop offset="0.6628" stop-color="#6D4C41"/>
<stop offset="1" stop-color="#6D4C41" stop-opacity="0"/>
</radialGradient>
<radialGradient id="paint11_radial_54_151" cx="0" cy="0" r="1" gradientUnits="userSpaceOnUse" gradientTransform="translate(96.4764 95.6939) rotate(-94.2783) scale(3.26126 2.71805)">
<stop offset="0.7247" stop-color="#6D4C41" stop-opacity="0"/>
<stop offset="1"/>
</radialGradient>
<radialGradient id="paint12_radial_54_151" cx="0" cy="0" r="1" gradientUnits="userSpaceOnUse" gradientTransform="translate(92.2477 95.6936) rotate(-85.7217) scale(3.26126 2.71805)">
<stop offset="0.7247" stop-opacity="0.39"/>
<stop offset="1"/>
</radialGradient>
<radialGradient id="paint13_radial_54_151" cx="0" cy="0" r="1" gradientUnits="userSpaceOnUse" gradientTransform="translate(92.798 98.1668) rotate(180) scale(2.51244 1.23411)">
<stop offset="0.7275" stop-color="#6D4C41" stop-opacity="0"/>
<stop offset="1" stop-color="#6D4C41"/>
</radialGradient>
<radialGradient id="paint14_radial_54_151" cx="0" cy="0" r="1" gradientUnits="userSpaceOnUse" gradientTransform="translate(90.3231 97.7931) rotate(25.0761) scale(0.742443 0.550787)">
<stop offset="0.6628" stop-color="#6D4C41"/>
<stop offset="1" stop-color="#6D4C41" stop-opacity="0"/>
</radialGradient>
<linearGradient id="paint15_linear_54_151" x1="100.121" y1="98.8021" x2="104.575" y2="91.5087" gradientUnits="userSpaceOnUse">
<stop stop-color="#FFB300"/>
<stop offset="0.5" stop-color="#FFCA28"/>
</linearGradient>
<linearGradient id="paint16_linear_54_151" x1="88.509" y1="98.74" x2="84.0233" y2="91.5434" gradientUnits="userSpaceOnUse">
<stop stop-color="#FFB300"/>
<stop offset="0.5" stop-color="#FFCA28"/>
</linearGradient>
<linearGradient id="paint17_linear_54_151" x1="94.3377" y1="99.6581" x2="94.3377" y2="108.503" gradientUnits="userSpaceOnUse">
<stop stop-color="#CB6C6C"/>
<stop offset="0.0916665" stop-color="#FF9494"/>
<stop offset="0.242708" stop-color="#DE9898"/>
<stop offset="0.4936" stop-color="#F39220"/>
<stop offset="0.794792" stop-color="#ED6D23"/>
<stop offset="0.977083" stop-color="#242424"/>
</linearGradient>
<radialGradient id="paint18_radial_54_151" cx="0" cy="0" r="1" gradientUnits="userSpaceOnUse" gradientTransform="translate(96.2931 93.9721) rotate(72.0851) scale(3.8227 2.83635)">
<stop offset="0.6985" stop-color="#6D4C41" stop-opacity="0"/>
<stop offset="1" stop-color="#6D4C41"/>
</radialGradient>
<radialGradient id="paint19_radial_54_151" cx="0" cy="0" r="1" gradientUnits="userSpaceOnUse" gradientTransform="translate(92.5675 89.8052) rotate(28.2026) scale(1.00231 1.18845)">
<stop offset="0.58" stop-color="#6D4C41"/>
<stop offset="1" stop-color="#6D4C41" stop-opacity="0"/>
</radialGradient>
<radialGradient id="paint20_radial_54_151" cx="0" cy="0" r="1" gradientUnits="userSpaceOnUse" gradientTransform="translate(94.8077 91.6236) rotate(-157.19) scale(3.13474 1.76173)">
<stop offset="0.6985" stop-color="#6D4C41" stop-opacity="0"/>
<stop offset="1" stop-color="#6D4C41"/>
</radialGradient>
<radialGradient id="paint21_radial_54_151" cx="0" cy="0" r="1" gradientUnits="userSpaceOnUse" gradientTransform="translate(92.1643 90.7192) scale(0.92 1.12544)">
<stop offset="0.7016" stop-color="#6D4C41" stop-opacity="0"/>
<stop offset="1" stop-color="#6D4C41"/>
</radialGradient>
<radialGradient id="paint22_radial_54_151" cx="0" cy="0" r="1" gradientUnits="userSpaceOnUse" gradientTransform="translate(92.0374 92.3434) rotate(-164.942) scale(1.72551 1.61476)">
<stop offset="0.6605" stop-color="#6D4C41" stop-opacity="0"/>
<stop offset="1"/>
</radialGradient>
<radialGradient id="paint23_radial_54_151" cx="0" cy="0" r="1" gradientUnits="userSpaceOnUse" gradientTransform="translate(91.6294 94.0086) rotate(7.83355) scale(1.81158 2.54556)">
<stop offset="0.5981" stop-color="#6D4C41" stop-opacity="0"/>
<stop offset="1"/>
</radialGradient>
<radialGradient id="paint24_radial_54_151" cx="0" cy="0" r="1" gradientUnits="userSpaceOnUse" gradientTransform="translate(84.4127 91.011) scale(1.96958)">
<stop stop-color="#FFB300"/>
<stop offset="0.5" stop-color="#FFCA28"/>
</radialGradient>
<linearGradient id="paint25_linear_54_151" x1="84.2072" y1="89.4249" x2="84.2435" y2="88.2752" gradientUnits="userSpaceOnUse">
<stop stop-color="#FFB300"/>
<stop offset="0.5" stop-color="#FFCA28"/>
</linearGradient>
<linearGradient id="paint26_linear_54_151" x1="84.2798" y1="90.7103" x2="86.1184" y2="89.7898" gradientUnits="userSpaceOnUse">
<stop stop-color="#FFB300"/>
<stop offset="0.4693" stop-color="#FFCA28"/>
</linearGradient>
<radialGradient id="paint27_radial_54_151" cx="0" cy="0" r="1" gradientUnits="userSpaceOnUse" gradientTransform="translate(104.305 91.011) rotate(180) scale(1.96958)">
<stop stop-color="#FFB300"/>
<stop offset="0.5" stop-color="#FFCA28"/>
</radialGradient>
<linearGradient id="paint28_linear_54_151" x1="104.511" y1="89.4249" x2="104.474" y2="88.2752" gradientUnits="userSpaceOnUse">
<stop stop-color="#FFB300"/>
<stop offset="0.5" stop-color="#FFCA28"/>
</linearGradient>
<linearGradient id="paint29_linear_54_151" x1="104.437" y1="90.7103" x2="102.599" y2="89.7898" gradientUnits="userSpaceOnUse">
<stop stop-color="#FFB300"/>
<stop offset="0.4693" stop-color="#FFCA28"/>
</linearGradient>
</defs>
</svg>
